M48
; DRILL file {KiCad 9.0.3} date 2025-07-11T17:05:40-0500
; FORMAT={-:-/ absolute / metric / decimal}
; #@! TF.CreationDate,2025-07-11T17:05:40-05:00
; #@! TF.GenerationSoftware,Kicad,Pcbnew,9.0.3
; #@! TF.FileFunction,Plated,1,2,PTH
FMAT,2
METRIC
; #@! TA.AperFunction,Plated,PTH,ViaDrill
T1C0.100
; #@! TA.AperFunction,Plated,PTH,ViaDrill
T2C0.300
; #@! TA.AperFunction,Plated,PTH,ComponentDrill
T3C0.700
; #@! TA.AperFunction,Plated,PTH,ComponentDrill
T4C0.800
; #@! TA.AperFunction,Plated,PTH,ComponentDrill
T5C0.900
; #@! TA.AperFunction,Plated,PTH,ComponentDrill
T6C0.950
; #@! TA.AperFunction,Plated,PTH,ComponentDrill
T7C1.000
; #@! TA.AperFunction,Plated,PTH,ComponentDrill
T8C1.100
%
G90
G05
T1
X94.615Y-92.71
X94.615Y-107.95
T2
X67.31Y-82.55
X76.2Y-90.17
X78.74Y-82.55
X97.155Y-85.09
X97.155Y-102.87
X109.22Y-73.66
X109.22Y-90.17
X111.125Y-85.09
X111.125Y-96.52
X113.03Y-64.77
X113.03Y-116.84
X114.3Y-87.63
X114.3Y-102.87
X122.555Y-68.58
X122.555Y-78.74
X122.555Y-91.44
X122.555Y-111.76
X125.73Y-116.84
X127.0Y-102.87
X128.27Y-114.3
T3
X113.03Y-60.96
X118.11Y-60.96
X119.38Y-68.58
X119.38Y-73.66
X119.38Y-78.74
X119.38Y-83.82
X119.38Y-91.44
X119.38Y-96.52
T4
X113.03Y-111.76
X114.3Y-68.66
X114.3Y-73.66
X114.3Y-78.82
X114.3Y-83.82
X114.3Y-91.52
X114.3Y-96.52
X114.3Y-109.22
X115.57Y-111.76
X116.84Y-109.22
X125.73Y-111.76
X127.0Y-109.22
X128.27Y-111.76
X129.54Y-109.22
T5
X121.92Y-60.96
X124.46Y-60.96
T6
X66.08Y-115.57
X68.58Y-115.57
X71.08Y-115.57
T7
X60.96Y-93.98
X63.5Y-93.98
X66.04Y-93.98
X68.58Y-93.98
X71.069Y-60.96
X71.12Y-93.98
X73.609Y-60.96
X76.149Y-60.96
X78.689Y-60.96
X91.44Y-64.77
X91.44Y-67.31
X91.44Y-69.85
X91.44Y-72.39
X91.44Y-74.93
X91.44Y-77.47
X91.44Y-80.01
X91.44Y-82.55
X91.44Y-85.09
X91.44Y-87.63
X91.44Y-90.17
X91.44Y-92.71
X91.44Y-95.25
X91.44Y-97.79
X91.44Y-100.33
X106.68Y-64.77
X106.68Y-67.31
X106.68Y-69.85
X106.68Y-72.39
X106.68Y-74.93
X106.68Y-77.47
X106.68Y-80.01
X106.68Y-82.55
X106.68Y-85.09
X106.68Y-87.63
X106.68Y-90.17
X106.68Y-92.71
X106.68Y-95.25
X106.68Y-97.79
X106.68Y-100.33
T8
X126.945Y-67.31
X126.945Y-73.81
X127.0Y-78.74
X127.0Y-85.24
X127.0Y-90.17
X127.0Y-96.67
X131.445Y-67.31
X131.445Y-73.81
X131.5Y-78.74
X131.5Y-85.24
X131.5Y-90.17
X131.5Y-96.67
M30
