G04 #@! TF.GenerationSoftware,KiCad,Pcbnew,9.0.3*
G04 #@! TF.CreationDate,2025-07-11T17:18:18-05:00*
G04 #@! TF.ProjectId,Projects,50726f6a-6563-4747-932e-6b696361645f,11/07/2026*
G04 #@! TF.SameCoordinates,Original*
G04 #@! TF.FileFunction,Legend,Top*
G04 #@! TF.FilePolarity,Positive*
%FSLAX46Y46*%
G04 Gerber Fmt 4.6, Leading zero omitted, Abs format (unit mm)*
G04 Created by KiCad (PCBNEW 9.0.3) date 2025-07-11 17:18:18*
%MOMM*%
%LPD*%
G01*
G04 APERTURE LIST*
%ADD10C,0.300000*%
%ADD11C,0.100000*%
%ADD12C,0.203200*%
%ADD13C,0.150000*%
%ADD14C,0.101600*%
%ADD15C,0.120000*%
%ADD16C,0.000000*%
G04 APERTURE END LIST*
D10*
X128189510Y-75770828D02*
X128189510Y-76985114D01*
X128189510Y-76985114D02*
X128260939Y-77127971D01*
X128260939Y-77127971D02*
X128332368Y-77199400D01*
X128332368Y-77199400D02*
X128475225Y-77270828D01*
X128475225Y-77270828D02*
X128760939Y-77270828D01*
X128760939Y-77270828D02*
X128903796Y-77199400D01*
X128903796Y-77199400D02*
X128975225Y-77127971D01*
X128975225Y-77127971D02*
X129046653Y-76985114D01*
X129046653Y-76985114D02*
X129046653Y-75770828D01*
X129760939Y-77270828D02*
X129760939Y-75770828D01*
X129760939Y-75770828D02*
X130332368Y-75770828D01*
X130332368Y-75770828D02*
X130475225Y-75842257D01*
X130475225Y-75842257D02*
X130546654Y-75913685D01*
X130546654Y-75913685D02*
X130618082Y-76056542D01*
X130618082Y-76056542D02*
X130618082Y-76270828D01*
X130618082Y-76270828D02*
X130546654Y-76413685D01*
X130546654Y-76413685D02*
X130475225Y-76485114D01*
X130475225Y-76485114D02*
X130332368Y-76556542D01*
X130332368Y-76556542D02*
X129760939Y-76556542D01*
X126284510Y-100130828D02*
X126284510Y-98630828D01*
X126284510Y-98630828D02*
X126641653Y-98630828D01*
X126641653Y-98630828D02*
X126855939Y-98702257D01*
X126855939Y-98702257D02*
X126998796Y-98845114D01*
X126998796Y-98845114D02*
X127070225Y-98987971D01*
X127070225Y-98987971D02*
X127141653Y-99273685D01*
X127141653Y-99273685D02*
X127141653Y-99487971D01*
X127141653Y-99487971D02*
X127070225Y-99773685D01*
X127070225Y-99773685D02*
X126998796Y-99916542D01*
X126998796Y-99916542D02*
X126855939Y-100059400D01*
X126855939Y-100059400D02*
X126641653Y-100130828D01*
X126641653Y-100130828D02*
X126284510Y-100130828D01*
X128070225Y-98630828D02*
X128355939Y-98630828D01*
X128355939Y-98630828D02*
X128498796Y-98702257D01*
X128498796Y-98702257D02*
X128641653Y-98845114D01*
X128641653Y-98845114D02*
X128713082Y-99130828D01*
X128713082Y-99130828D02*
X128713082Y-99630828D01*
X128713082Y-99630828D02*
X128641653Y-99916542D01*
X128641653Y-99916542D02*
X128498796Y-100059400D01*
X128498796Y-100059400D02*
X128355939Y-100130828D01*
X128355939Y-100130828D02*
X128070225Y-100130828D01*
X128070225Y-100130828D02*
X127927368Y-100059400D01*
X127927368Y-100059400D02*
X127784510Y-99916542D01*
X127784510Y-99916542D02*
X127713082Y-99630828D01*
X127713082Y-99630828D02*
X127713082Y-99130828D01*
X127713082Y-99130828D02*
X127784510Y-98845114D01*
X127784510Y-98845114D02*
X127927368Y-98702257D01*
X127927368Y-98702257D02*
X128070225Y-98630828D01*
X129213082Y-98630828D02*
X129570225Y-100130828D01*
X129570225Y-100130828D02*
X129855939Y-99059400D01*
X129855939Y-99059400D02*
X130141654Y-100130828D01*
X130141654Y-100130828D02*
X130498797Y-98630828D01*
X131070225Y-100130828D02*
X131070225Y-98630828D01*
X131070225Y-98630828D02*
X131927368Y-100130828D01*
X131927368Y-100130828D02*
X131927368Y-98630828D01*
X81763082Y-117839400D02*
X81977368Y-117910828D01*
X81977368Y-117910828D02*
X82334510Y-117910828D01*
X82334510Y-117910828D02*
X82477368Y-117839400D01*
X82477368Y-117839400D02*
X82548796Y-117767971D01*
X82548796Y-117767971D02*
X82620225Y-117625114D01*
X82620225Y-117625114D02*
X82620225Y-117482257D01*
X82620225Y-117482257D02*
X82548796Y-117339400D01*
X82548796Y-117339400D02*
X82477368Y-117267971D01*
X82477368Y-117267971D02*
X82334510Y-117196542D01*
X82334510Y-117196542D02*
X82048796Y-117125114D01*
X82048796Y-117125114D02*
X81905939Y-117053685D01*
X81905939Y-117053685D02*
X81834510Y-116982257D01*
X81834510Y-116982257D02*
X81763082Y-116839400D01*
X81763082Y-116839400D02*
X81763082Y-116696542D01*
X81763082Y-116696542D02*
X81834510Y-116553685D01*
X81834510Y-116553685D02*
X81905939Y-116482257D01*
X81905939Y-116482257D02*
X82048796Y-116410828D01*
X82048796Y-116410828D02*
X82405939Y-116410828D01*
X82405939Y-116410828D02*
X82620225Y-116482257D01*
X84120224Y-117767971D02*
X84048796Y-117839400D01*
X84048796Y-117839400D02*
X83834510Y-117910828D01*
X83834510Y-117910828D02*
X83691653Y-117910828D01*
X83691653Y-117910828D02*
X83477367Y-117839400D01*
X83477367Y-117839400D02*
X83334510Y-117696542D01*
X83334510Y-117696542D02*
X83263081Y-117553685D01*
X83263081Y-117553685D02*
X83191653Y-117267971D01*
X83191653Y-117267971D02*
X83191653Y-117053685D01*
X83191653Y-117053685D02*
X83263081Y-116767971D01*
X83263081Y-116767971D02*
X83334510Y-116625114D01*
X83334510Y-116625114D02*
X83477367Y-116482257D01*
X83477367Y-116482257D02*
X83691653Y-116410828D01*
X83691653Y-116410828D02*
X83834510Y-116410828D01*
X83834510Y-116410828D02*
X84048796Y-116482257D01*
X84048796Y-116482257D02*
X84120224Y-116553685D01*
X84763081Y-117910828D02*
X84763081Y-116410828D01*
X84763081Y-117125114D02*
X85620224Y-117125114D01*
X85620224Y-117910828D02*
X85620224Y-116410828D01*
X86263082Y-117482257D02*
X86977368Y-117482257D01*
X86120225Y-117910828D02*
X86620225Y-116410828D01*
X86620225Y-116410828D02*
X87120225Y-117910828D01*
X87905939Y-116410828D02*
X88048796Y-116410828D01*
X88048796Y-116410828D02*
X88191653Y-116482257D01*
X88191653Y-116482257D02*
X88263082Y-116553685D01*
X88263082Y-116553685D02*
X88334510Y-116696542D01*
X88334510Y-116696542D02*
X88405939Y-116982257D01*
X88405939Y-116982257D02*
X88405939Y-117339400D01*
X88405939Y-117339400D02*
X88334510Y-117625114D01*
X88334510Y-117625114D02*
X88263082Y-117767971D01*
X88263082Y-117767971D02*
X88191653Y-117839400D01*
X88191653Y-117839400D02*
X88048796Y-117910828D01*
X88048796Y-117910828D02*
X87905939Y-117910828D01*
X87905939Y-117910828D02*
X87763082Y-117839400D01*
X87763082Y-117839400D02*
X87691653Y-117767971D01*
X87691653Y-117767971D02*
X87620224Y-117625114D01*
X87620224Y-117625114D02*
X87548796Y-117339400D01*
X87548796Y-117339400D02*
X87548796Y-116982257D01*
X87548796Y-116982257D02*
X87620224Y-116696542D01*
X87620224Y-116696542D02*
X87691653Y-116553685D01*
X87691653Y-116553685D02*
X87763082Y-116482257D01*
X87763082Y-116482257D02*
X87905939Y-116410828D01*
X89334510Y-116410828D02*
X89477367Y-116410828D01*
X89477367Y-116410828D02*
X89620224Y-116482257D01*
X89620224Y-116482257D02*
X89691653Y-116553685D01*
X89691653Y-116553685D02*
X89763081Y-116696542D01*
X89763081Y-116696542D02*
X89834510Y-116982257D01*
X89834510Y-116982257D02*
X89834510Y-117339400D01*
X89834510Y-117339400D02*
X89763081Y-117625114D01*
X89763081Y-117625114D02*
X89691653Y-117767971D01*
X89691653Y-117767971D02*
X89620224Y-117839400D01*
X89620224Y-117839400D02*
X89477367Y-117910828D01*
X89477367Y-117910828D02*
X89334510Y-117910828D01*
X89334510Y-117910828D02*
X89191653Y-117839400D01*
X89191653Y-117839400D02*
X89120224Y-117767971D01*
X89120224Y-117767971D02*
X89048795Y-117625114D01*
X89048795Y-117625114D02*
X88977367Y-117339400D01*
X88977367Y-117339400D02*
X88977367Y-116982257D01*
X88977367Y-116982257D02*
X89048795Y-116696542D01*
X89048795Y-116696542D02*
X89120224Y-116553685D01*
X89120224Y-116553685D02*
X89191653Y-116482257D01*
X89191653Y-116482257D02*
X89334510Y-116410828D01*
X90120224Y-118053685D02*
X91263081Y-118053685D01*
X92405938Y-117910828D02*
X91548795Y-117910828D01*
X91977366Y-117910828D02*
X91977366Y-116410828D01*
X91977366Y-116410828D02*
X91834509Y-116625114D01*
X91834509Y-116625114D02*
X91691652Y-116767971D01*
X91691652Y-116767971D02*
X91548795Y-116839400D01*
X92691652Y-118053685D02*
X93834509Y-118053685D01*
X94977366Y-117910828D02*
X94120223Y-117910828D01*
X94548794Y-117910828D02*
X94548794Y-116410828D01*
X94548794Y-116410828D02*
X94405937Y-116625114D01*
X94405937Y-116625114D02*
X94263080Y-116767971D01*
X94263080Y-116767971D02*
X94120223Y-116839400D01*
X60879510Y-106480828D02*
X60879510Y-104980828D01*
X60879510Y-104980828D02*
X61379510Y-106052257D01*
X61379510Y-106052257D02*
X61879510Y-104980828D01*
X61879510Y-104980828D02*
X61879510Y-106480828D01*
X62522368Y-106052257D02*
X63236654Y-106052257D01*
X62379511Y-106480828D02*
X62879511Y-104980828D01*
X62879511Y-104980828D02*
X63379511Y-106480828D01*
X63736653Y-104980828D02*
X64736653Y-106480828D01*
X64736653Y-104980828D02*
X63736653Y-106480828D01*
X65165224Y-104980828D02*
X66093796Y-104980828D01*
X66093796Y-104980828D02*
X65593796Y-105552257D01*
X65593796Y-105552257D02*
X65808081Y-105552257D01*
X65808081Y-105552257D02*
X65950939Y-105623685D01*
X65950939Y-105623685D02*
X66022367Y-105695114D01*
X66022367Y-105695114D02*
X66093796Y-105837971D01*
X66093796Y-105837971D02*
X66093796Y-106195114D01*
X66093796Y-106195114D02*
X66022367Y-106337971D01*
X66022367Y-106337971D02*
X65950939Y-106409400D01*
X65950939Y-106409400D02*
X65808081Y-106480828D01*
X65808081Y-106480828D02*
X65379510Y-106480828D01*
X65379510Y-106480828D02*
X65236653Y-106409400D01*
X65236653Y-106409400D02*
X65165224Y-106337971D01*
X67022367Y-104980828D02*
X67165224Y-104980828D01*
X67165224Y-104980828D02*
X67308081Y-105052257D01*
X67308081Y-105052257D02*
X67379510Y-105123685D01*
X67379510Y-105123685D02*
X67450938Y-105266542D01*
X67450938Y-105266542D02*
X67522367Y-105552257D01*
X67522367Y-105552257D02*
X67522367Y-105909400D01*
X67522367Y-105909400D02*
X67450938Y-106195114D01*
X67450938Y-106195114D02*
X67379510Y-106337971D01*
X67379510Y-106337971D02*
X67308081Y-106409400D01*
X67308081Y-106409400D02*
X67165224Y-106480828D01*
X67165224Y-106480828D02*
X67022367Y-106480828D01*
X67022367Y-106480828D02*
X66879510Y-106409400D01*
X66879510Y-106409400D02*
X66808081Y-106337971D01*
X66808081Y-106337971D02*
X66736652Y-106195114D01*
X66736652Y-106195114D02*
X66665224Y-105909400D01*
X66665224Y-105909400D02*
X66665224Y-105552257D01*
X66665224Y-105552257D02*
X66736652Y-105266542D01*
X66736652Y-105266542D02*
X66808081Y-105123685D01*
X66808081Y-105123685D02*
X66879510Y-105052257D01*
X66879510Y-105052257D02*
X67022367Y-104980828D01*
X68950938Y-106480828D02*
X68093795Y-106480828D01*
X68522366Y-106480828D02*
X68522366Y-104980828D01*
X68522366Y-104980828D02*
X68379509Y-105195114D01*
X68379509Y-105195114D02*
X68236652Y-105337971D01*
X68236652Y-105337971D02*
X68093795Y-105409400D01*
X69879509Y-104980828D02*
X70022366Y-104980828D01*
X70022366Y-104980828D02*
X70165223Y-105052257D01*
X70165223Y-105052257D02*
X70236652Y-105123685D01*
X70236652Y-105123685D02*
X70308080Y-105266542D01*
X70308080Y-105266542D02*
X70379509Y-105552257D01*
X70379509Y-105552257D02*
X70379509Y-105909400D01*
X70379509Y-105909400D02*
X70308080Y-106195114D01*
X70308080Y-106195114D02*
X70236652Y-106337971D01*
X70236652Y-106337971D02*
X70165223Y-106409400D01*
X70165223Y-106409400D02*
X70022366Y-106480828D01*
X70022366Y-106480828D02*
X69879509Y-106480828D01*
X69879509Y-106480828D02*
X69736652Y-106409400D01*
X69736652Y-106409400D02*
X69665223Y-106337971D01*
X69665223Y-106337971D02*
X69593794Y-106195114D01*
X69593794Y-106195114D02*
X69522366Y-105909400D01*
X69522366Y-105909400D02*
X69522366Y-105552257D01*
X69522366Y-105552257D02*
X69593794Y-105266542D01*
X69593794Y-105266542D02*
X69665223Y-105123685D01*
X69665223Y-105123685D02*
X69736652Y-105052257D01*
X69736652Y-105052257D02*
X69879509Y-104980828D01*
X70950937Y-105123685D02*
X71022365Y-105052257D01*
X71022365Y-105052257D02*
X71165223Y-104980828D01*
X71165223Y-104980828D02*
X71522365Y-104980828D01*
X71522365Y-104980828D02*
X71665223Y-105052257D01*
X71665223Y-105052257D02*
X71736651Y-105123685D01*
X71736651Y-105123685D02*
X71808080Y-105266542D01*
X71808080Y-105266542D02*
X71808080Y-105409400D01*
X71808080Y-105409400D02*
X71736651Y-105623685D01*
X71736651Y-105623685D02*
X70879508Y-106480828D01*
X70879508Y-106480828D02*
X71808080Y-106480828D01*
X58903082Y-88629400D02*
X59117368Y-88700828D01*
X59117368Y-88700828D02*
X59474510Y-88700828D01*
X59474510Y-88700828D02*
X59617368Y-88629400D01*
X59617368Y-88629400D02*
X59688796Y-88557971D01*
X59688796Y-88557971D02*
X59760225Y-88415114D01*
X59760225Y-88415114D02*
X59760225Y-88272257D01*
X59760225Y-88272257D02*
X59688796Y-88129400D01*
X59688796Y-88129400D02*
X59617368Y-88057971D01*
X59617368Y-88057971D02*
X59474510Y-87986542D01*
X59474510Y-87986542D02*
X59188796Y-87915114D01*
X59188796Y-87915114D02*
X59045939Y-87843685D01*
X59045939Y-87843685D02*
X58974510Y-87772257D01*
X58974510Y-87772257D02*
X58903082Y-87629400D01*
X58903082Y-87629400D02*
X58903082Y-87486542D01*
X58903082Y-87486542D02*
X58974510Y-87343685D01*
X58974510Y-87343685D02*
X59045939Y-87272257D01*
X59045939Y-87272257D02*
X59188796Y-87200828D01*
X59188796Y-87200828D02*
X59545939Y-87200828D01*
X59545939Y-87200828D02*
X59760225Y-87272257D01*
X60331653Y-88629400D02*
X60545939Y-88700828D01*
X60545939Y-88700828D02*
X60903081Y-88700828D01*
X60903081Y-88700828D02*
X61045939Y-88629400D01*
X61045939Y-88629400D02*
X61117367Y-88557971D01*
X61117367Y-88557971D02*
X61188796Y-88415114D01*
X61188796Y-88415114D02*
X61188796Y-88272257D01*
X61188796Y-88272257D02*
X61117367Y-88129400D01*
X61117367Y-88129400D02*
X61045939Y-88057971D01*
X61045939Y-88057971D02*
X60903081Y-87986542D01*
X60903081Y-87986542D02*
X60617367Y-87915114D01*
X60617367Y-87915114D02*
X60474510Y-87843685D01*
X60474510Y-87843685D02*
X60403081Y-87772257D01*
X60403081Y-87772257D02*
X60331653Y-87629400D01*
X60331653Y-87629400D02*
X60331653Y-87486542D01*
X60331653Y-87486542D02*
X60403081Y-87343685D01*
X60403081Y-87343685D02*
X60474510Y-87272257D01*
X60474510Y-87272257D02*
X60617367Y-87200828D01*
X60617367Y-87200828D02*
X60974510Y-87200828D01*
X60974510Y-87200828D02*
X61188796Y-87272257D01*
X61831652Y-88700828D02*
X61831652Y-87200828D01*
X61831652Y-87200828D02*
X62188795Y-87200828D01*
X62188795Y-87200828D02*
X62403081Y-87272257D01*
X62403081Y-87272257D02*
X62545938Y-87415114D01*
X62545938Y-87415114D02*
X62617367Y-87557971D01*
X62617367Y-87557971D02*
X62688795Y-87843685D01*
X62688795Y-87843685D02*
X62688795Y-88057971D01*
X62688795Y-88057971D02*
X62617367Y-88343685D01*
X62617367Y-88343685D02*
X62545938Y-88486542D01*
X62545938Y-88486542D02*
X62403081Y-88629400D01*
X62403081Y-88629400D02*
X62188795Y-88700828D01*
X62188795Y-88700828D02*
X61831652Y-88700828D01*
X64117367Y-88700828D02*
X63260224Y-88700828D01*
X63688795Y-88700828D02*
X63688795Y-87200828D01*
X63688795Y-87200828D02*
X63545938Y-87415114D01*
X63545938Y-87415114D02*
X63403081Y-87557971D01*
X63403081Y-87557971D02*
X63260224Y-87629400D01*
X64617366Y-87200828D02*
X65545938Y-87200828D01*
X65545938Y-87200828D02*
X65045938Y-87772257D01*
X65045938Y-87772257D02*
X65260223Y-87772257D01*
X65260223Y-87772257D02*
X65403081Y-87843685D01*
X65403081Y-87843685D02*
X65474509Y-87915114D01*
X65474509Y-87915114D02*
X65545938Y-88057971D01*
X65545938Y-88057971D02*
X65545938Y-88415114D01*
X65545938Y-88415114D02*
X65474509Y-88557971D01*
X65474509Y-88557971D02*
X65403081Y-88629400D01*
X65403081Y-88629400D02*
X65260223Y-88700828D01*
X65260223Y-88700828D02*
X64831652Y-88700828D01*
X64831652Y-88700828D02*
X64688795Y-88629400D01*
X64688795Y-88629400D02*
X64617366Y-88557971D01*
X66474509Y-87200828D02*
X66617366Y-87200828D01*
X66617366Y-87200828D02*
X66760223Y-87272257D01*
X66760223Y-87272257D02*
X66831652Y-87343685D01*
X66831652Y-87343685D02*
X66903080Y-87486542D01*
X66903080Y-87486542D02*
X66974509Y-87772257D01*
X66974509Y-87772257D02*
X66974509Y-88129400D01*
X66974509Y-88129400D02*
X66903080Y-88415114D01*
X66903080Y-88415114D02*
X66831652Y-88557971D01*
X66831652Y-88557971D02*
X66760223Y-88629400D01*
X66760223Y-88629400D02*
X66617366Y-88700828D01*
X66617366Y-88700828D02*
X66474509Y-88700828D01*
X66474509Y-88700828D02*
X66331652Y-88629400D01*
X66331652Y-88629400D02*
X66260223Y-88557971D01*
X66260223Y-88557971D02*
X66188794Y-88415114D01*
X66188794Y-88415114D02*
X66117366Y-88129400D01*
X66117366Y-88129400D02*
X66117366Y-87772257D01*
X66117366Y-87772257D02*
X66188794Y-87486542D01*
X66188794Y-87486542D02*
X66260223Y-87343685D01*
X66260223Y-87343685D02*
X66331652Y-87272257D01*
X66331652Y-87272257D02*
X66474509Y-87200828D01*
X68260223Y-87200828D02*
X67974508Y-87200828D01*
X67974508Y-87200828D02*
X67831651Y-87272257D01*
X67831651Y-87272257D02*
X67760223Y-87343685D01*
X67760223Y-87343685D02*
X67617365Y-87557971D01*
X67617365Y-87557971D02*
X67545937Y-87843685D01*
X67545937Y-87843685D02*
X67545937Y-88415114D01*
X67545937Y-88415114D02*
X67617365Y-88557971D01*
X67617365Y-88557971D02*
X67688794Y-88629400D01*
X67688794Y-88629400D02*
X67831651Y-88700828D01*
X67831651Y-88700828D02*
X68117365Y-88700828D01*
X68117365Y-88700828D02*
X68260223Y-88629400D01*
X68260223Y-88629400D02*
X68331651Y-88557971D01*
X68331651Y-88557971D02*
X68403080Y-88415114D01*
X68403080Y-88415114D02*
X68403080Y-88057971D01*
X68403080Y-88057971D02*
X68331651Y-87915114D01*
X68331651Y-87915114D02*
X68260223Y-87843685D01*
X68260223Y-87843685D02*
X68117365Y-87772257D01*
X68117365Y-87772257D02*
X67831651Y-87772257D01*
X67831651Y-87772257D02*
X67688794Y-87843685D01*
X67688794Y-87843685D02*
X67617365Y-87915114D01*
X67617365Y-87915114D02*
X67545937Y-88057971D01*
X126919510Y-65205828D02*
X126919510Y-63705828D01*
X126919510Y-63705828D02*
X127419510Y-64777257D01*
X127419510Y-64777257D02*
X127919510Y-63705828D01*
X127919510Y-63705828D02*
X127919510Y-65205828D01*
X128633796Y-64420114D02*
X129133796Y-64420114D01*
X129348082Y-65205828D02*
X128633796Y-65205828D01*
X128633796Y-65205828D02*
X128633796Y-63705828D01*
X128633796Y-63705828D02*
X129348082Y-63705828D01*
X129990939Y-65205828D02*
X129990939Y-63705828D01*
X129990939Y-63705828D02*
X130848082Y-65205828D01*
X130848082Y-65205828D02*
X130848082Y-63705828D01*
X131562368Y-63705828D02*
X131562368Y-64920114D01*
X131562368Y-64920114D02*
X131633797Y-65062971D01*
X131633797Y-65062971D02*
X131705226Y-65134400D01*
X131705226Y-65134400D02*
X131848083Y-65205828D01*
X131848083Y-65205828D02*
X132133797Y-65205828D01*
X132133797Y-65205828D02*
X132276654Y-65134400D01*
X132276654Y-65134400D02*
X132348083Y-65062971D01*
X132348083Y-65062971D02*
X132419511Y-64920114D01*
X132419511Y-64920114D02*
X132419511Y-63705828D01*
D11*
X73533095Y-97247419D02*
X73533095Y-98056942D01*
X73533095Y-98056942D02*
X73580714Y-98152180D01*
X73580714Y-98152180D02*
X73628333Y-98199800D01*
X73628333Y-98199800D02*
X73723571Y-98247419D01*
X73723571Y-98247419D02*
X73914047Y-98247419D01*
X73914047Y-98247419D02*
X74009285Y-98199800D01*
X74009285Y-98199800D02*
X74056904Y-98152180D01*
X74056904Y-98152180D02*
X74104523Y-98056942D01*
X74104523Y-98056942D02*
X74104523Y-97247419D01*
X75104523Y-98247419D02*
X74533095Y-98247419D01*
X74818809Y-98247419D02*
X74818809Y-97247419D01*
X74818809Y-97247419D02*
X74723571Y-97390276D01*
X74723571Y-97390276D02*
X74628333Y-97485514D01*
X74628333Y-97485514D02*
X74533095Y-97533133D01*
D12*
X68203866Y-97291039D02*
X68165161Y-97368449D01*
X68165161Y-97368449D02*
X68165161Y-97484563D01*
X68165161Y-97484563D02*
X68203866Y-97600677D01*
X68203866Y-97600677D02*
X68281276Y-97678087D01*
X68281276Y-97678087D02*
X68358685Y-97716792D01*
X68358685Y-97716792D02*
X68513504Y-97755496D01*
X68513504Y-97755496D02*
X68629618Y-97755496D01*
X68629618Y-97755496D02*
X68784437Y-97716792D01*
X68784437Y-97716792D02*
X68861847Y-97678087D01*
X68861847Y-97678087D02*
X68939257Y-97600677D01*
X68939257Y-97600677D02*
X68977961Y-97484563D01*
X68977961Y-97484563D02*
X68977961Y-97407154D01*
X68977961Y-97407154D02*
X68939257Y-97291039D01*
X68939257Y-97291039D02*
X68900552Y-97252335D01*
X68900552Y-97252335D02*
X68629618Y-97252335D01*
X68629618Y-97252335D02*
X68629618Y-97407154D01*
X68977961Y-96903992D02*
X68165161Y-96903992D01*
X68165161Y-96903992D02*
X68977961Y-96439535D01*
X68977961Y-96439535D02*
X68165161Y-96439535D01*
X68977961Y-96052487D02*
X68165161Y-96052487D01*
X68165161Y-96052487D02*
X68165161Y-95858963D01*
X68165161Y-95858963D02*
X68203866Y-95742849D01*
X68203866Y-95742849D02*
X68281276Y-95665439D01*
X68281276Y-95665439D02*
X68358685Y-95626734D01*
X68358685Y-95626734D02*
X68513504Y-95588030D01*
X68513504Y-95588030D02*
X68629618Y-95588030D01*
X68629618Y-95588030D02*
X68784437Y-95626734D01*
X68784437Y-95626734D02*
X68861847Y-95665439D01*
X68861847Y-95665439D02*
X68939257Y-95742849D01*
X68939257Y-95742849D02*
X68977961Y-95858963D01*
X68977961Y-95858963D02*
X68977961Y-96052487D01*
X70705161Y-97832906D02*
X71517961Y-97561973D01*
X71517961Y-97561973D02*
X70705161Y-97291039D01*
X71440552Y-96555649D02*
X71479257Y-96594353D01*
X71479257Y-96594353D02*
X71517961Y-96710468D01*
X71517961Y-96710468D02*
X71517961Y-96787877D01*
X71517961Y-96787877D02*
X71479257Y-96903991D01*
X71479257Y-96903991D02*
X71401847Y-96981401D01*
X71401847Y-96981401D02*
X71324437Y-97020106D01*
X71324437Y-97020106D02*
X71169618Y-97058810D01*
X71169618Y-97058810D02*
X71053504Y-97058810D01*
X71053504Y-97058810D02*
X70898685Y-97020106D01*
X70898685Y-97020106D02*
X70821276Y-96981401D01*
X70821276Y-96981401D02*
X70743866Y-96903991D01*
X70743866Y-96903991D02*
X70705161Y-96787877D01*
X70705161Y-96787877D02*
X70705161Y-96710468D01*
X70705161Y-96710468D02*
X70743866Y-96594353D01*
X70743866Y-96594353D02*
X70782571Y-96555649D01*
X71440552Y-95742849D02*
X71479257Y-95781553D01*
X71479257Y-95781553D02*
X71517961Y-95897668D01*
X71517961Y-95897668D02*
X71517961Y-95975077D01*
X71517961Y-95975077D02*
X71479257Y-96091191D01*
X71479257Y-96091191D02*
X71401847Y-96168601D01*
X71401847Y-96168601D02*
X71324437Y-96207306D01*
X71324437Y-96207306D02*
X71169618Y-96246010D01*
X71169618Y-96246010D02*
X71053504Y-96246010D01*
X71053504Y-96246010D02*
X70898685Y-96207306D01*
X70898685Y-96207306D02*
X70821276Y-96168601D01*
X70821276Y-96168601D02*
X70743866Y-96091191D01*
X70743866Y-96091191D02*
X70705161Y-95975077D01*
X70705161Y-95975077D02*
X70705161Y-95897668D01*
X70705161Y-95897668D02*
X70743866Y-95781553D01*
X70743866Y-95781553D02*
X70782571Y-95742849D01*
X61357961Y-97208792D02*
X60545161Y-97208792D01*
X61357961Y-96821744D02*
X60545161Y-96821744D01*
X60545161Y-96821744D02*
X61357961Y-96357287D01*
X61357961Y-96357287D02*
X60545161Y-96357287D01*
X60545161Y-96086353D02*
X60545161Y-95621896D01*
X61357961Y-95854124D02*
X60545161Y-95854124D01*
X66399257Y-97755496D02*
X66437961Y-97639382D01*
X66437961Y-97639382D02*
X66437961Y-97445858D01*
X66437961Y-97445858D02*
X66399257Y-97368449D01*
X66399257Y-97368449D02*
X66360552Y-97329744D01*
X66360552Y-97329744D02*
X66283142Y-97291039D01*
X66283142Y-97291039D02*
X66205733Y-97291039D01*
X66205733Y-97291039D02*
X66128323Y-97329744D01*
X66128323Y-97329744D02*
X66089618Y-97368449D01*
X66089618Y-97368449D02*
X66050914Y-97445858D01*
X66050914Y-97445858D02*
X66012209Y-97600677D01*
X66012209Y-97600677D02*
X65973504Y-97678087D01*
X65973504Y-97678087D02*
X65934799Y-97716792D01*
X65934799Y-97716792D02*
X65857390Y-97755496D01*
X65857390Y-97755496D02*
X65779980Y-97755496D01*
X65779980Y-97755496D02*
X65702571Y-97716792D01*
X65702571Y-97716792D02*
X65663866Y-97678087D01*
X65663866Y-97678087D02*
X65625161Y-97600677D01*
X65625161Y-97600677D02*
X65625161Y-97407154D01*
X65625161Y-97407154D02*
X65663866Y-97291039D01*
X66360552Y-96478240D02*
X66399257Y-96516944D01*
X66399257Y-96516944D02*
X66437961Y-96633059D01*
X66437961Y-96633059D02*
X66437961Y-96710468D01*
X66437961Y-96710468D02*
X66399257Y-96826582D01*
X66399257Y-96826582D02*
X66321847Y-96903992D01*
X66321847Y-96903992D02*
X66244437Y-96942697D01*
X66244437Y-96942697D02*
X66089618Y-96981401D01*
X66089618Y-96981401D02*
X65973504Y-96981401D01*
X65973504Y-96981401D02*
X65818685Y-96942697D01*
X65818685Y-96942697D02*
X65741276Y-96903992D01*
X65741276Y-96903992D02*
X65663866Y-96826582D01*
X65663866Y-96826582D02*
X65625161Y-96710468D01*
X65625161Y-96710468D02*
X65625161Y-96633059D01*
X65625161Y-96633059D02*
X65663866Y-96516944D01*
X65663866Y-96516944D02*
X65702571Y-96478240D01*
X66437961Y-95742849D02*
X66437961Y-96129897D01*
X66437961Y-96129897D02*
X65625161Y-96129897D01*
X63859257Y-97755496D02*
X63897961Y-97639382D01*
X63897961Y-97639382D02*
X63897961Y-97445858D01*
X63897961Y-97445858D02*
X63859257Y-97368449D01*
X63859257Y-97368449D02*
X63820552Y-97329744D01*
X63820552Y-97329744D02*
X63743142Y-97291039D01*
X63743142Y-97291039D02*
X63665733Y-97291039D01*
X63665733Y-97291039D02*
X63588323Y-97329744D01*
X63588323Y-97329744D02*
X63549618Y-97368449D01*
X63549618Y-97368449D02*
X63510914Y-97445858D01*
X63510914Y-97445858D02*
X63472209Y-97600677D01*
X63472209Y-97600677D02*
X63433504Y-97678087D01*
X63433504Y-97678087D02*
X63394799Y-97716792D01*
X63394799Y-97716792D02*
X63317390Y-97755496D01*
X63317390Y-97755496D02*
X63239980Y-97755496D01*
X63239980Y-97755496D02*
X63162571Y-97716792D01*
X63162571Y-97716792D02*
X63123866Y-97678087D01*
X63123866Y-97678087D02*
X63085161Y-97600677D01*
X63085161Y-97600677D02*
X63085161Y-97407154D01*
X63085161Y-97407154D02*
X63123866Y-97291039D01*
X63897961Y-96942697D02*
X63085161Y-96942697D01*
X63085161Y-96942697D02*
X63085161Y-96749173D01*
X63085161Y-96749173D02*
X63123866Y-96633059D01*
X63123866Y-96633059D02*
X63201276Y-96555649D01*
X63201276Y-96555649D02*
X63278685Y-96516944D01*
X63278685Y-96516944D02*
X63433504Y-96478240D01*
X63433504Y-96478240D02*
X63549618Y-96478240D01*
X63549618Y-96478240D02*
X63704437Y-96516944D01*
X63704437Y-96516944D02*
X63781847Y-96555649D01*
X63781847Y-96555649D02*
X63859257Y-96633059D01*
X63859257Y-96633059D02*
X63897961Y-96749173D01*
X63897961Y-96749173D02*
X63897961Y-96942697D01*
X63665733Y-96168601D02*
X63665733Y-95781554D01*
X63897961Y-96246011D02*
X63085161Y-95975078D01*
X63085161Y-95975078D02*
X63897961Y-95704144D01*
D13*
X121754819Y-81446666D02*
X121278628Y-81779999D01*
X121754819Y-82018094D02*
X120754819Y-82018094D01*
X120754819Y-82018094D02*
X120754819Y-81637142D01*
X120754819Y-81637142D02*
X120802438Y-81541904D01*
X120802438Y-81541904D02*
X120850057Y-81494285D01*
X120850057Y-81494285D02*
X120945295Y-81446666D01*
X120945295Y-81446666D02*
X121088152Y-81446666D01*
X121088152Y-81446666D02*
X121183390Y-81494285D01*
X121183390Y-81494285D02*
X121231009Y-81541904D01*
X121231009Y-81541904D02*
X121278628Y-81637142D01*
X121278628Y-81637142D02*
X121278628Y-82018094D01*
X120850057Y-81065713D02*
X120802438Y-81018094D01*
X120802438Y-81018094D02*
X120754819Y-80922856D01*
X120754819Y-80922856D02*
X120754819Y-80684761D01*
X120754819Y-80684761D02*
X120802438Y-80589523D01*
X120802438Y-80589523D02*
X120850057Y-80541904D01*
X120850057Y-80541904D02*
X120945295Y-80494285D01*
X120945295Y-80494285D02*
X121040533Y-80494285D01*
X121040533Y-80494285D02*
X121183390Y-80541904D01*
X121183390Y-80541904D02*
X121754819Y-81113332D01*
X121754819Y-81113332D02*
X121754819Y-80494285D01*
X110634819Y-111228094D02*
X109634819Y-111228094D01*
X109634819Y-111228094D02*
X109634819Y-110847142D01*
X109634819Y-110847142D02*
X109682438Y-110751904D01*
X109682438Y-110751904D02*
X109730057Y-110704285D01*
X109730057Y-110704285D02*
X109825295Y-110656666D01*
X109825295Y-110656666D02*
X109968152Y-110656666D01*
X109968152Y-110656666D02*
X110063390Y-110704285D01*
X110063390Y-110704285D02*
X110111009Y-110751904D01*
X110111009Y-110751904D02*
X110158628Y-110847142D01*
X110158628Y-110847142D02*
X110158628Y-111228094D01*
X110634819Y-109704285D02*
X110634819Y-110275713D01*
X110634819Y-109989999D02*
X109634819Y-109989999D01*
X109634819Y-109989999D02*
X109777676Y-110085237D01*
X109777676Y-110085237D02*
X109872914Y-110180475D01*
X109872914Y-110180475D02*
X109920533Y-110275713D01*
X121754819Y-94146666D02*
X121278628Y-94479999D01*
X121754819Y-94718094D02*
X120754819Y-94718094D01*
X120754819Y-94718094D02*
X120754819Y-94337142D01*
X120754819Y-94337142D02*
X120802438Y-94241904D01*
X120802438Y-94241904D02*
X120850057Y-94194285D01*
X120850057Y-94194285D02*
X120945295Y-94146666D01*
X120945295Y-94146666D02*
X121088152Y-94146666D01*
X121088152Y-94146666D02*
X121183390Y-94194285D01*
X121183390Y-94194285D02*
X121231009Y-94241904D01*
X121231009Y-94241904D02*
X121278628Y-94337142D01*
X121278628Y-94337142D02*
X121278628Y-94718094D01*
X120754819Y-93813332D02*
X120754819Y-93194285D01*
X120754819Y-93194285D02*
X121135771Y-93527618D01*
X121135771Y-93527618D02*
X121135771Y-93384761D01*
X121135771Y-93384761D02*
X121183390Y-93289523D01*
X121183390Y-93289523D02*
X121231009Y-93241904D01*
X121231009Y-93241904D02*
X121326247Y-93194285D01*
X121326247Y-93194285D02*
X121564342Y-93194285D01*
X121564342Y-93194285D02*
X121659580Y-93241904D01*
X121659580Y-93241904D02*
X121707200Y-93289523D01*
X121707200Y-93289523D02*
X121754819Y-93384761D01*
X121754819Y-93384761D02*
X121754819Y-93670475D01*
X121754819Y-93670475D02*
X121707200Y-93765713D01*
X121707200Y-93765713D02*
X121659580Y-93813332D01*
X115403333Y-59494819D02*
X115070000Y-59018628D01*
X114831905Y-59494819D02*
X114831905Y-58494819D01*
X114831905Y-58494819D02*
X115212857Y-58494819D01*
X115212857Y-58494819D02*
X115308095Y-58542438D01*
X115308095Y-58542438D02*
X115355714Y-58590057D01*
X115355714Y-58590057D02*
X115403333Y-58685295D01*
X115403333Y-58685295D02*
X115403333Y-58828152D01*
X115403333Y-58828152D02*
X115355714Y-58923390D01*
X115355714Y-58923390D02*
X115308095Y-58971009D01*
X115308095Y-58971009D02*
X115212857Y-59018628D01*
X115212857Y-59018628D02*
X114831905Y-59018628D01*
X116260476Y-58828152D02*
X116260476Y-59494819D01*
X116022381Y-58447200D02*
X115784286Y-59161485D01*
X115784286Y-59161485D02*
X116403333Y-59161485D01*
X121754819Y-71286666D02*
X121278628Y-71619999D01*
X121754819Y-71858094D02*
X120754819Y-71858094D01*
X120754819Y-71858094D02*
X120754819Y-71477142D01*
X120754819Y-71477142D02*
X120802438Y-71381904D01*
X120802438Y-71381904D02*
X120850057Y-71334285D01*
X120850057Y-71334285D02*
X120945295Y-71286666D01*
X120945295Y-71286666D02*
X121088152Y-71286666D01*
X121088152Y-71286666D02*
X121183390Y-71334285D01*
X121183390Y-71334285D02*
X121231009Y-71381904D01*
X121231009Y-71381904D02*
X121278628Y-71477142D01*
X121278628Y-71477142D02*
X121278628Y-71858094D01*
X121754819Y-70334285D02*
X121754819Y-70905713D01*
X121754819Y-70619999D02*
X120754819Y-70619999D01*
X120754819Y-70619999D02*
X120897676Y-70715237D01*
X120897676Y-70715237D02*
X120992914Y-70810475D01*
X120992914Y-70810475D02*
X121040533Y-70905713D01*
X123334819Y-111228094D02*
X122334819Y-111228094D01*
X122334819Y-111228094D02*
X122334819Y-110847142D01*
X122334819Y-110847142D02*
X122382438Y-110751904D01*
X122382438Y-110751904D02*
X122430057Y-110704285D01*
X122430057Y-110704285D02*
X122525295Y-110656666D01*
X122525295Y-110656666D02*
X122668152Y-110656666D01*
X122668152Y-110656666D02*
X122763390Y-110704285D01*
X122763390Y-110704285D02*
X122811009Y-110751904D01*
X122811009Y-110751904D02*
X122858628Y-110847142D01*
X122858628Y-110847142D02*
X122858628Y-111228094D01*
X122430057Y-110275713D02*
X122382438Y-110228094D01*
X122382438Y-110228094D02*
X122334819Y-110132856D01*
X122334819Y-110132856D02*
X122334819Y-109894761D01*
X122334819Y-109894761D02*
X122382438Y-109799523D01*
X122382438Y-109799523D02*
X122430057Y-109751904D01*
X122430057Y-109751904D02*
X122525295Y-109704285D01*
X122525295Y-109704285D02*
X122620533Y-109704285D01*
X122620533Y-109704285D02*
X122763390Y-109751904D01*
X122763390Y-109751904D02*
X123334819Y-110323332D01*
X123334819Y-110323332D02*
X123334819Y-109704285D01*
X112159580Y-81486666D02*
X112207200Y-81534285D01*
X112207200Y-81534285D02*
X112254819Y-81677142D01*
X112254819Y-81677142D02*
X112254819Y-81772380D01*
X112254819Y-81772380D02*
X112207200Y-81915237D01*
X112207200Y-81915237D02*
X112111961Y-82010475D01*
X112111961Y-82010475D02*
X112016723Y-82058094D01*
X112016723Y-82058094D02*
X111826247Y-82105713D01*
X111826247Y-82105713D02*
X111683390Y-82105713D01*
X111683390Y-82105713D02*
X111492914Y-82058094D01*
X111492914Y-82058094D02*
X111397676Y-82010475D01*
X111397676Y-82010475D02*
X111302438Y-81915237D01*
X111302438Y-81915237D02*
X111254819Y-81772380D01*
X111254819Y-81772380D02*
X111254819Y-81677142D01*
X111254819Y-81677142D02*
X111302438Y-81534285D01*
X111302438Y-81534285D02*
X111350057Y-81486666D01*
X111350057Y-81105713D02*
X111302438Y-81058094D01*
X111302438Y-81058094D02*
X111254819Y-80962856D01*
X111254819Y-80962856D02*
X111254819Y-80724761D01*
X111254819Y-80724761D02*
X111302438Y-80629523D01*
X111302438Y-80629523D02*
X111350057Y-80581904D01*
X111350057Y-80581904D02*
X111445295Y-80534285D01*
X111445295Y-80534285D02*
X111540533Y-80534285D01*
X111540533Y-80534285D02*
X111683390Y-80581904D01*
X111683390Y-80581904D02*
X112254819Y-81153332D01*
X112254819Y-81153332D02*
X112254819Y-80534285D01*
X124867200Y-94753332D02*
X124914819Y-94610475D01*
X124914819Y-94610475D02*
X124914819Y-94372380D01*
X124914819Y-94372380D02*
X124867200Y-94277142D01*
X124867200Y-94277142D02*
X124819580Y-94229523D01*
X124819580Y-94229523D02*
X124724342Y-94181904D01*
X124724342Y-94181904D02*
X124629104Y-94181904D01*
X124629104Y-94181904D02*
X124533866Y-94229523D01*
X124533866Y-94229523D02*
X124486247Y-94277142D01*
X124486247Y-94277142D02*
X124438628Y-94372380D01*
X124438628Y-94372380D02*
X124391009Y-94562856D01*
X124391009Y-94562856D02*
X124343390Y-94658094D01*
X124343390Y-94658094D02*
X124295771Y-94705713D01*
X124295771Y-94705713D02*
X124200533Y-94753332D01*
X124200533Y-94753332D02*
X124105295Y-94753332D01*
X124105295Y-94753332D02*
X124010057Y-94705713D01*
X124010057Y-94705713D02*
X123962438Y-94658094D01*
X123962438Y-94658094D02*
X123914819Y-94562856D01*
X123914819Y-94562856D02*
X123914819Y-94324761D01*
X123914819Y-94324761D02*
X123962438Y-94181904D01*
X123914819Y-93848570D02*
X124914819Y-93610475D01*
X124914819Y-93610475D02*
X124200533Y-93419999D01*
X124200533Y-93419999D02*
X124914819Y-93229523D01*
X124914819Y-93229523D02*
X123914819Y-92991428D01*
X123914819Y-92705713D02*
X123914819Y-92086666D01*
X123914819Y-92086666D02*
X124295771Y-92419999D01*
X124295771Y-92419999D02*
X124295771Y-92277142D01*
X124295771Y-92277142D02*
X124343390Y-92181904D01*
X124343390Y-92181904D02*
X124391009Y-92134285D01*
X124391009Y-92134285D02*
X124486247Y-92086666D01*
X124486247Y-92086666D02*
X124724342Y-92086666D01*
X124724342Y-92086666D02*
X124819580Y-92134285D01*
X124819580Y-92134285D02*
X124867200Y-92181904D01*
X124867200Y-92181904D02*
X124914819Y-92277142D01*
X124914819Y-92277142D02*
X124914819Y-92562856D01*
X124914819Y-92562856D02*
X124867200Y-92658094D01*
X124867200Y-92658094D02*
X124819580Y-92705713D01*
X98345714Y-105579104D02*
X98821904Y-105579104D01*
X98250476Y-105864819D02*
X98583809Y-104864819D01*
X98583809Y-104864819D02*
X98917142Y-105864819D01*
X99774285Y-105864819D02*
X99202857Y-105864819D01*
X99488571Y-105864819D02*
X99488571Y-104864819D01*
X99488571Y-104864819D02*
X99393333Y-105007676D01*
X99393333Y-105007676D02*
X99298095Y-105102914D01*
X99298095Y-105102914D02*
X99202857Y-105150533D01*
X100321904Y-65315180D02*
X100321904Y-64505657D01*
X100321904Y-64505657D02*
X100274285Y-64410419D01*
X100274285Y-64410419D02*
X100226666Y-64362800D01*
X100226666Y-64362800D02*
X100131428Y-64315180D01*
X100131428Y-64315180D02*
X99940952Y-64315180D01*
X99940952Y-64315180D02*
X99845714Y-64362800D01*
X99845714Y-64362800D02*
X99798095Y-64410419D01*
X99798095Y-64410419D02*
X99750476Y-64505657D01*
X99750476Y-64505657D02*
X99750476Y-65315180D01*
X99321904Y-64362800D02*
X99179047Y-64315180D01*
X99179047Y-64315180D02*
X98940952Y-64315180D01*
X98940952Y-64315180D02*
X98845714Y-64362800D01*
X98845714Y-64362800D02*
X98798095Y-64410419D01*
X98798095Y-64410419D02*
X98750476Y-64505657D01*
X98750476Y-64505657D02*
X98750476Y-64600895D01*
X98750476Y-64600895D02*
X98798095Y-64696133D01*
X98798095Y-64696133D02*
X98845714Y-64743752D01*
X98845714Y-64743752D02*
X98940952Y-64791371D01*
X98940952Y-64791371D02*
X99131428Y-64838990D01*
X99131428Y-64838990D02*
X99226666Y-64886609D01*
X99226666Y-64886609D02*
X99274285Y-64934228D01*
X99274285Y-64934228D02*
X99321904Y-65029466D01*
X99321904Y-65029466D02*
X99321904Y-65124704D01*
X99321904Y-65124704D02*
X99274285Y-65219942D01*
X99274285Y-65219942D02*
X99226666Y-65267561D01*
X99226666Y-65267561D02*
X99131428Y-65315180D01*
X99131428Y-65315180D02*
X98893333Y-65315180D01*
X98893333Y-65315180D02*
X98750476Y-65267561D01*
X97988571Y-64838990D02*
X97845714Y-64791371D01*
X97845714Y-64791371D02*
X97798095Y-64743752D01*
X97798095Y-64743752D02*
X97750476Y-64648514D01*
X97750476Y-64648514D02*
X97750476Y-64505657D01*
X97750476Y-64505657D02*
X97798095Y-64410419D01*
X97798095Y-64410419D02*
X97845714Y-64362800D01*
X97845714Y-64362800D02*
X97940952Y-64315180D01*
X97940952Y-64315180D02*
X98321904Y-64315180D01*
X98321904Y-64315180D02*
X98321904Y-65315180D01*
X98321904Y-65315180D02*
X97988571Y-65315180D01*
X97988571Y-65315180D02*
X97893333Y-65267561D01*
X97893333Y-65267561D02*
X97845714Y-65219942D01*
X97845714Y-65219942D02*
X97798095Y-65124704D01*
X97798095Y-65124704D02*
X97798095Y-65029466D01*
X97798095Y-65029466D02*
X97845714Y-64934228D01*
X97845714Y-64934228D02*
X97893333Y-64886609D01*
X97893333Y-64886609D02*
X97988571Y-64838990D01*
X97988571Y-64838990D02*
X98321904Y-64838990D01*
X112159580Y-94186666D02*
X112207200Y-94234285D01*
X112207200Y-94234285D02*
X112254819Y-94377142D01*
X112254819Y-94377142D02*
X112254819Y-94472380D01*
X112254819Y-94472380D02*
X112207200Y-94615237D01*
X112207200Y-94615237D02*
X112111961Y-94710475D01*
X112111961Y-94710475D02*
X112016723Y-94758094D01*
X112016723Y-94758094D02*
X111826247Y-94805713D01*
X111826247Y-94805713D02*
X111683390Y-94805713D01*
X111683390Y-94805713D02*
X111492914Y-94758094D01*
X111492914Y-94758094D02*
X111397676Y-94710475D01*
X111397676Y-94710475D02*
X111302438Y-94615237D01*
X111302438Y-94615237D02*
X111254819Y-94472380D01*
X111254819Y-94472380D02*
X111254819Y-94377142D01*
X111254819Y-94377142D02*
X111302438Y-94234285D01*
X111302438Y-94234285D02*
X111350057Y-94186666D01*
X111254819Y-93853332D02*
X111254819Y-93234285D01*
X111254819Y-93234285D02*
X111635771Y-93567618D01*
X111635771Y-93567618D02*
X111635771Y-93424761D01*
X111635771Y-93424761D02*
X111683390Y-93329523D01*
X111683390Y-93329523D02*
X111731009Y-93281904D01*
X111731009Y-93281904D02*
X111826247Y-93234285D01*
X111826247Y-93234285D02*
X112064342Y-93234285D01*
X112064342Y-93234285D02*
X112159580Y-93281904D01*
X112159580Y-93281904D02*
X112207200Y-93329523D01*
X112207200Y-93329523D02*
X112254819Y-93424761D01*
X112254819Y-93424761D02*
X112254819Y-93710475D01*
X112254819Y-93710475D02*
X112207200Y-93805713D01*
X112207200Y-93805713D02*
X112159580Y-93853332D01*
X124867200Y-71893332D02*
X124914819Y-71750475D01*
X124914819Y-71750475D02*
X124914819Y-71512380D01*
X124914819Y-71512380D02*
X124867200Y-71417142D01*
X124867200Y-71417142D02*
X124819580Y-71369523D01*
X124819580Y-71369523D02*
X124724342Y-71321904D01*
X124724342Y-71321904D02*
X124629104Y-71321904D01*
X124629104Y-71321904D02*
X124533866Y-71369523D01*
X124533866Y-71369523D02*
X124486247Y-71417142D01*
X124486247Y-71417142D02*
X124438628Y-71512380D01*
X124438628Y-71512380D02*
X124391009Y-71702856D01*
X124391009Y-71702856D02*
X124343390Y-71798094D01*
X124343390Y-71798094D02*
X124295771Y-71845713D01*
X124295771Y-71845713D02*
X124200533Y-71893332D01*
X124200533Y-71893332D02*
X124105295Y-71893332D01*
X124105295Y-71893332D02*
X124010057Y-71845713D01*
X124010057Y-71845713D02*
X123962438Y-71798094D01*
X123962438Y-71798094D02*
X123914819Y-71702856D01*
X123914819Y-71702856D02*
X123914819Y-71464761D01*
X123914819Y-71464761D02*
X123962438Y-71321904D01*
X123914819Y-70988570D02*
X124914819Y-70750475D01*
X124914819Y-70750475D02*
X124200533Y-70559999D01*
X124200533Y-70559999D02*
X124914819Y-70369523D01*
X124914819Y-70369523D02*
X123914819Y-70131428D01*
X124914819Y-69226666D02*
X124914819Y-69798094D01*
X124914819Y-69512380D02*
X123914819Y-69512380D01*
X123914819Y-69512380D02*
X124057676Y-69607618D01*
X124057676Y-69607618D02*
X124152914Y-69702856D01*
X124152914Y-69702856D02*
X124200533Y-69798094D01*
X68246666Y-117824819D02*
X68246666Y-118539104D01*
X68246666Y-118539104D02*
X68199047Y-118681961D01*
X68199047Y-118681961D02*
X68103809Y-118777200D01*
X68103809Y-118777200D02*
X67960952Y-118824819D01*
X67960952Y-118824819D02*
X67865714Y-118824819D01*
X69246666Y-118824819D02*
X68675238Y-118824819D01*
X68960952Y-118824819D02*
X68960952Y-117824819D01*
X68960952Y-117824819D02*
X68865714Y-117967676D01*
X68865714Y-117967676D02*
X68770476Y-118062914D01*
X68770476Y-118062914D02*
X68675238Y-118110533D01*
X112159580Y-71326666D02*
X112207200Y-71374285D01*
X112207200Y-71374285D02*
X112254819Y-71517142D01*
X112254819Y-71517142D02*
X112254819Y-71612380D01*
X112254819Y-71612380D02*
X112207200Y-71755237D01*
X112207200Y-71755237D02*
X112111961Y-71850475D01*
X112111961Y-71850475D02*
X112016723Y-71898094D01*
X112016723Y-71898094D02*
X111826247Y-71945713D01*
X111826247Y-71945713D02*
X111683390Y-71945713D01*
X111683390Y-71945713D02*
X111492914Y-71898094D01*
X111492914Y-71898094D02*
X111397676Y-71850475D01*
X111397676Y-71850475D02*
X111302438Y-71755237D01*
X111302438Y-71755237D02*
X111254819Y-71612380D01*
X111254819Y-71612380D02*
X111254819Y-71517142D01*
X111254819Y-71517142D02*
X111302438Y-71374285D01*
X111302438Y-71374285D02*
X111350057Y-71326666D01*
X112254819Y-70374285D02*
X112254819Y-70945713D01*
X112254819Y-70659999D02*
X111254819Y-70659999D01*
X111254819Y-70659999D02*
X111397676Y-70755237D01*
X111397676Y-70755237D02*
X111492914Y-70850475D01*
X111492914Y-70850475D02*
X111540533Y-70945713D01*
X124867200Y-83323332D02*
X124914819Y-83180475D01*
X124914819Y-83180475D02*
X124914819Y-82942380D01*
X124914819Y-82942380D02*
X124867200Y-82847142D01*
X124867200Y-82847142D02*
X124819580Y-82799523D01*
X124819580Y-82799523D02*
X124724342Y-82751904D01*
X124724342Y-82751904D02*
X124629104Y-82751904D01*
X124629104Y-82751904D02*
X124533866Y-82799523D01*
X124533866Y-82799523D02*
X124486247Y-82847142D01*
X124486247Y-82847142D02*
X124438628Y-82942380D01*
X124438628Y-82942380D02*
X124391009Y-83132856D01*
X124391009Y-83132856D02*
X124343390Y-83228094D01*
X124343390Y-83228094D02*
X124295771Y-83275713D01*
X124295771Y-83275713D02*
X124200533Y-83323332D01*
X124200533Y-83323332D02*
X124105295Y-83323332D01*
X124105295Y-83323332D02*
X124010057Y-83275713D01*
X124010057Y-83275713D02*
X123962438Y-83228094D01*
X123962438Y-83228094D02*
X123914819Y-83132856D01*
X123914819Y-83132856D02*
X123914819Y-82894761D01*
X123914819Y-82894761D02*
X123962438Y-82751904D01*
X123914819Y-82418570D02*
X124914819Y-82180475D01*
X124914819Y-82180475D02*
X124200533Y-81989999D01*
X124200533Y-81989999D02*
X124914819Y-81799523D01*
X124914819Y-81799523D02*
X123914819Y-81561428D01*
X124010057Y-81228094D02*
X123962438Y-81180475D01*
X123962438Y-81180475D02*
X123914819Y-81085237D01*
X123914819Y-81085237D02*
X123914819Y-80847142D01*
X123914819Y-80847142D02*
X123962438Y-80751904D01*
X123962438Y-80751904D02*
X124010057Y-80704285D01*
X124010057Y-80704285D02*
X124105295Y-80656666D01*
X124105295Y-80656666D02*
X124200533Y-80656666D01*
X124200533Y-80656666D02*
X124343390Y-80704285D01*
X124343390Y-80704285D02*
X124914819Y-81275713D01*
X124914819Y-81275713D02*
X124914819Y-80656666D01*
X122451905Y-64374819D02*
X122451905Y-63374819D01*
X122451905Y-63374819D02*
X122690000Y-63374819D01*
X122690000Y-63374819D02*
X122832857Y-63422438D01*
X122832857Y-63422438D02*
X122928095Y-63517676D01*
X122928095Y-63517676D02*
X122975714Y-63612914D01*
X122975714Y-63612914D02*
X123023333Y-63803390D01*
X123023333Y-63803390D02*
X123023333Y-63946247D01*
X123023333Y-63946247D02*
X122975714Y-64136723D01*
X122975714Y-64136723D02*
X122928095Y-64231961D01*
X122928095Y-64231961D02*
X122832857Y-64327200D01*
X122832857Y-64327200D02*
X122690000Y-64374819D01*
X122690000Y-64374819D02*
X122451905Y-64374819D01*
X123975714Y-64374819D02*
X123404286Y-64374819D01*
X123690000Y-64374819D02*
X123690000Y-63374819D01*
X123690000Y-63374819D02*
X123594762Y-63517676D01*
X123594762Y-63517676D02*
X123499524Y-63612914D01*
X123499524Y-63612914D02*
X123404286Y-63660533D01*
D11*
X86360095Y-87087419D02*
X86360095Y-87896942D01*
X86360095Y-87896942D02*
X86407714Y-87992180D01*
X86407714Y-87992180D02*
X86455333Y-88039800D01*
X86455333Y-88039800D02*
X86550571Y-88087419D01*
X86550571Y-88087419D02*
X86741047Y-88087419D01*
X86741047Y-88087419D02*
X86836285Y-88039800D01*
X86836285Y-88039800D02*
X86883904Y-87992180D01*
X86883904Y-87992180D02*
X86931523Y-87896942D01*
X86931523Y-87896942D02*
X86931523Y-87087419D01*
X87360095Y-87182657D02*
X87407714Y-87135038D01*
X87407714Y-87135038D02*
X87502952Y-87087419D01*
X87502952Y-87087419D02*
X87741047Y-87087419D01*
X87741047Y-87087419D02*
X87836285Y-87135038D01*
X87836285Y-87135038D02*
X87883904Y-87182657D01*
X87883904Y-87182657D02*
X87931523Y-87277895D01*
X87931523Y-87277895D02*
X87931523Y-87373133D01*
X87931523Y-87373133D02*
X87883904Y-87515990D01*
X87883904Y-87515990D02*
X87312476Y-88087419D01*
X87312476Y-88087419D02*
X87931523Y-88087419D01*
D14*
X73180726Y-65002138D02*
X73993526Y-64731205D01*
X73993526Y-64731205D02*
X73180726Y-64460271D01*
X73916117Y-63724881D02*
X73954822Y-63763585D01*
X73954822Y-63763585D02*
X73993526Y-63879700D01*
X73993526Y-63879700D02*
X73993526Y-63957109D01*
X73993526Y-63957109D02*
X73954822Y-64073223D01*
X73954822Y-64073223D02*
X73877412Y-64150633D01*
X73877412Y-64150633D02*
X73800002Y-64189338D01*
X73800002Y-64189338D02*
X73645183Y-64228042D01*
X73645183Y-64228042D02*
X73529069Y-64228042D01*
X73529069Y-64228042D02*
X73374250Y-64189338D01*
X73374250Y-64189338D02*
X73296841Y-64150633D01*
X73296841Y-64150633D02*
X73219431Y-64073223D01*
X73219431Y-64073223D02*
X73180726Y-63957109D01*
X73180726Y-63957109D02*
X73180726Y-63879700D01*
X73180726Y-63879700D02*
X73219431Y-63763585D01*
X73219431Y-63763585D02*
X73258136Y-63724881D01*
X73916117Y-62912081D02*
X73954822Y-62950785D01*
X73954822Y-62950785D02*
X73993526Y-63066900D01*
X73993526Y-63066900D02*
X73993526Y-63144309D01*
X73993526Y-63144309D02*
X73954822Y-63260423D01*
X73954822Y-63260423D02*
X73877412Y-63337833D01*
X73877412Y-63337833D02*
X73800002Y-63376538D01*
X73800002Y-63376538D02*
X73645183Y-63415242D01*
X73645183Y-63415242D02*
X73529069Y-63415242D01*
X73529069Y-63415242D02*
X73374250Y-63376538D01*
X73374250Y-63376538D02*
X73296841Y-63337833D01*
X73296841Y-63337833D02*
X73219431Y-63260423D01*
X73219431Y-63260423D02*
X73180726Y-63144309D01*
X73180726Y-63144309D02*
X73180726Y-63066900D01*
X73180726Y-63066900D02*
X73219431Y-62950785D01*
X73219431Y-62950785D02*
X73258136Y-62912081D01*
X79128311Y-64855285D02*
X79167015Y-64739171D01*
X79167015Y-64739171D02*
X79167015Y-64545647D01*
X79167015Y-64545647D02*
X79128311Y-64468238D01*
X79128311Y-64468238D02*
X79089606Y-64429533D01*
X79089606Y-64429533D02*
X79012196Y-64390828D01*
X79012196Y-64390828D02*
X78934787Y-64390828D01*
X78934787Y-64390828D02*
X78857377Y-64429533D01*
X78857377Y-64429533D02*
X78818672Y-64468238D01*
X78818672Y-64468238D02*
X78779968Y-64545647D01*
X78779968Y-64545647D02*
X78741263Y-64700466D01*
X78741263Y-64700466D02*
X78702558Y-64777876D01*
X78702558Y-64777876D02*
X78663853Y-64816581D01*
X78663853Y-64816581D02*
X78586444Y-64855285D01*
X78586444Y-64855285D02*
X78509034Y-64855285D01*
X78509034Y-64855285D02*
X78431625Y-64816581D01*
X78431625Y-64816581D02*
X78392920Y-64777876D01*
X78392920Y-64777876D02*
X78354215Y-64700466D01*
X78354215Y-64700466D02*
X78354215Y-64506943D01*
X78354215Y-64506943D02*
X78392920Y-64390828D01*
X79167015Y-64042486D02*
X78354215Y-64042486D01*
X78354215Y-64042486D02*
X78354215Y-63848962D01*
X78354215Y-63848962D02*
X78392920Y-63732848D01*
X78392920Y-63732848D02*
X78470330Y-63655438D01*
X78470330Y-63655438D02*
X78547739Y-63616733D01*
X78547739Y-63616733D02*
X78702558Y-63578029D01*
X78702558Y-63578029D02*
X78818672Y-63578029D01*
X78818672Y-63578029D02*
X78973491Y-63616733D01*
X78973491Y-63616733D02*
X79050901Y-63655438D01*
X79050901Y-63655438D02*
X79128311Y-63732848D01*
X79128311Y-63732848D02*
X79167015Y-63848962D01*
X79167015Y-63848962D02*
X79167015Y-64042486D01*
X78934787Y-63268390D02*
X78934787Y-62881343D01*
X79167015Y-63345800D02*
X78354215Y-63074867D01*
X78354215Y-63074867D02*
X79167015Y-62803933D01*
X76420041Y-64959449D02*
X76458745Y-64843335D01*
X76458745Y-64843335D02*
X76458745Y-64649811D01*
X76458745Y-64649811D02*
X76420041Y-64572402D01*
X76420041Y-64572402D02*
X76381336Y-64533697D01*
X76381336Y-64533697D02*
X76303926Y-64494992D01*
X76303926Y-64494992D02*
X76226517Y-64494992D01*
X76226517Y-64494992D02*
X76149107Y-64533697D01*
X76149107Y-64533697D02*
X76110402Y-64572402D01*
X76110402Y-64572402D02*
X76071698Y-64649811D01*
X76071698Y-64649811D02*
X76032993Y-64804630D01*
X76032993Y-64804630D02*
X75994288Y-64882040D01*
X75994288Y-64882040D02*
X75955583Y-64920745D01*
X75955583Y-64920745D02*
X75878174Y-64959449D01*
X75878174Y-64959449D02*
X75800764Y-64959449D01*
X75800764Y-64959449D02*
X75723355Y-64920745D01*
X75723355Y-64920745D02*
X75684650Y-64882040D01*
X75684650Y-64882040D02*
X75645945Y-64804630D01*
X75645945Y-64804630D02*
X75645945Y-64611107D01*
X75645945Y-64611107D02*
X75684650Y-64494992D01*
X76381336Y-63682193D02*
X76420041Y-63720897D01*
X76420041Y-63720897D02*
X76458745Y-63837012D01*
X76458745Y-63837012D02*
X76458745Y-63914421D01*
X76458745Y-63914421D02*
X76420041Y-64030535D01*
X76420041Y-64030535D02*
X76342631Y-64107945D01*
X76342631Y-64107945D02*
X76265221Y-64146650D01*
X76265221Y-64146650D02*
X76110402Y-64185354D01*
X76110402Y-64185354D02*
X75994288Y-64185354D01*
X75994288Y-64185354D02*
X75839469Y-64146650D01*
X75839469Y-64146650D02*
X75762060Y-64107945D01*
X75762060Y-64107945D02*
X75684650Y-64030535D01*
X75684650Y-64030535D02*
X75645945Y-63914421D01*
X75645945Y-63914421D02*
X75645945Y-63837012D01*
X75645945Y-63837012D02*
X75684650Y-63720897D01*
X75684650Y-63720897D02*
X75723355Y-63682193D01*
X76458745Y-62946802D02*
X76458745Y-63333850D01*
X76458745Y-63333850D02*
X75645945Y-63333850D01*
X70495149Y-64388681D02*
X70456444Y-64466091D01*
X70456444Y-64466091D02*
X70456444Y-64582205D01*
X70456444Y-64582205D02*
X70495149Y-64698319D01*
X70495149Y-64698319D02*
X70572559Y-64775729D01*
X70572559Y-64775729D02*
X70649968Y-64814434D01*
X70649968Y-64814434D02*
X70804787Y-64853138D01*
X70804787Y-64853138D02*
X70920901Y-64853138D01*
X70920901Y-64853138D02*
X71075720Y-64814434D01*
X71075720Y-64814434D02*
X71153130Y-64775729D01*
X71153130Y-64775729D02*
X71230540Y-64698319D01*
X71230540Y-64698319D02*
X71269244Y-64582205D01*
X71269244Y-64582205D02*
X71269244Y-64504796D01*
X71269244Y-64504796D02*
X71230540Y-64388681D01*
X71230540Y-64388681D02*
X71191835Y-64349977D01*
X71191835Y-64349977D02*
X70920901Y-64349977D01*
X70920901Y-64349977D02*
X70920901Y-64504796D01*
X71269244Y-64001634D02*
X70456444Y-64001634D01*
X70456444Y-64001634D02*
X71269244Y-63537177D01*
X71269244Y-63537177D02*
X70456444Y-63537177D01*
X71269244Y-63150129D02*
X70456444Y-63150129D01*
X70456444Y-63150129D02*
X70456444Y-62956605D01*
X70456444Y-62956605D02*
X70495149Y-62840491D01*
X70495149Y-62840491D02*
X70572559Y-62763081D01*
X70572559Y-62763081D02*
X70649968Y-62724376D01*
X70649968Y-62724376D02*
X70804787Y-62685672D01*
X70804787Y-62685672D02*
X70920901Y-62685672D01*
X70920901Y-62685672D02*
X71075720Y-62724376D01*
X71075720Y-62724376D02*
X71153130Y-62763081D01*
X71153130Y-62763081D02*
X71230540Y-62840491D01*
X71230540Y-62840491D02*
X71269244Y-62956605D01*
X71269244Y-62956605D02*
X71269244Y-63150129D01*
D11*
X59040000Y-90520000D02*
X73040000Y-90520000D01*
X59040000Y-104520000D02*
X59040000Y-90520000D01*
X73040000Y-90520000D02*
X73040000Y-104520000D01*
X73040000Y-104520000D02*
X59040000Y-104520000D01*
X62968000Y-102108000D02*
G75*
G02*
X59968000Y-102108000I-1500000J0D01*
G01*
X59968000Y-102108000D02*
G75*
G02*
X62968000Y-102108000I1500000J0D01*
G01*
X72112000Y-102108000D02*
G75*
G02*
X69112000Y-102108000I-1500000J0D01*
G01*
X69112000Y-102108000D02*
G75*
G02*
X72112000Y-102108000I1500000J0D01*
G01*
D15*
X118460000Y-79360000D02*
X118460000Y-83200000D01*
X120300000Y-79360000D02*
X120300000Y-83200000D01*
X111275000Y-113200000D02*
X118595000Y-113200000D01*
X112530000Y-114590000D02*
X113030000Y-113590000D01*
X113030000Y-113590000D02*
X113530000Y-114590000D01*
X113530000Y-114590000D02*
X112530000Y-114590000D01*
X118595000Y-107780000D02*
X111275000Y-107780000D01*
X118595000Y-113200000D02*
X118595000Y-107780000D01*
X118460000Y-92060000D02*
X118460000Y-95900000D01*
X120300000Y-92060000D02*
X120300000Y-95900000D01*
X113650000Y-60040000D02*
X117490000Y-60040000D01*
X113650000Y-61880000D02*
X117490000Y-61880000D01*
X118460000Y-69200000D02*
X118460000Y-73040000D01*
X120300000Y-69200000D02*
X120300000Y-73040000D01*
X123975000Y-113200000D02*
X131295000Y-113200000D01*
X125230000Y-114590000D02*
X125730000Y-113590000D01*
X125730000Y-113590000D02*
X126230000Y-114590000D01*
X126230000Y-114590000D02*
X125230000Y-114590000D01*
X131295000Y-107780000D02*
X123975000Y-107780000D01*
X131295000Y-113200000D02*
X131295000Y-107780000D01*
X112930000Y-76200000D02*
X115670000Y-76200000D01*
X112930000Y-86440000D02*
X112930000Y-76200000D01*
X112930000Y-86440000D02*
X115670000Y-86440000D01*
X115670000Y-86440000D02*
X115670000Y-76200000D01*
X126000000Y-91170000D02*
X126000000Y-95670000D01*
X128500000Y-96920000D02*
X130000000Y-96920000D01*
X130000000Y-89920000D02*
X128500000Y-89920000D01*
X132500000Y-95670000D02*
X132500000Y-91170000D01*
X90040000Y-60830000D02*
X90040000Y-104270000D01*
X90040000Y-60830000D02*
X95120000Y-60830000D01*
X90040000Y-104270000D02*
X108080000Y-104270000D01*
X92710000Y-63500000D02*
X90040000Y-63500000D01*
X92710000Y-101600000D02*
X90040000Y-101600000D01*
X92710000Y-101600000D02*
X92710000Y-63500000D01*
X95120000Y-58290000D02*
X103000000Y-58290000D01*
X95120000Y-68710000D02*
X95120000Y-58290000D01*
X103000000Y-58290000D02*
X103000000Y-68710000D01*
X103000000Y-68710000D02*
X95120000Y-68710000D01*
X105410000Y-63500000D02*
X108080000Y-63500000D01*
X105410000Y-99060000D02*
X105410000Y-63500000D01*
X105410000Y-99060000D02*
X105410000Y-101600000D01*
X105410000Y-99060000D02*
X108080000Y-99060000D01*
X105410000Y-101600000D02*
X108080000Y-101600000D01*
X108080000Y-60830000D02*
X103000000Y-60830000D01*
X108080000Y-99060000D02*
X108080000Y-60830000D01*
X108080000Y-104270000D02*
X108080000Y-101600000D01*
X112930000Y-88900000D02*
X115670000Y-88900000D01*
X112930000Y-99140000D02*
X112930000Y-88900000D01*
X112930000Y-99140000D02*
X115670000Y-99140000D01*
X115670000Y-99140000D02*
X115670000Y-88900000D01*
X125945000Y-68310000D02*
X125945000Y-72810000D01*
X128445000Y-74060000D02*
X129945000Y-74060000D01*
X129945000Y-67060000D02*
X128445000Y-67060000D01*
X132445000Y-72810000D02*
X132445000Y-68310000D01*
X63470000Y-113260000D02*
X63470000Y-117280000D01*
X63470000Y-114760000D02*
X64470000Y-114760000D01*
X63470000Y-117280000D02*
X73690000Y-117280000D01*
X63970000Y-115570000D02*
X63470000Y-115570000D01*
X63970000Y-116780000D02*
X63970000Y-115570000D01*
X64470000Y-114760000D02*
X64470000Y-113260000D01*
X72690000Y-114760000D02*
X72690000Y-113260000D01*
X73190000Y-115570000D02*
X73190000Y-116780000D01*
X73190000Y-116780000D02*
X63970000Y-116780000D01*
X73690000Y-113260000D02*
X63470000Y-113260000D01*
X73690000Y-114760000D02*
X72690000Y-114760000D01*
X73690000Y-115570000D02*
X73190000Y-115570000D01*
X73690000Y-117280000D02*
X73690000Y-113260000D01*
X73990000Y-112960000D02*
X71490000Y-112960000D01*
X73990000Y-115460000D02*
X73990000Y-112960000D01*
X112930000Y-68690000D02*
X113260000Y-68690000D01*
X112930000Y-73630000D02*
X112930000Y-68690000D01*
X112930000Y-73630000D02*
X113260000Y-73630000D01*
X115340000Y-68690000D02*
X115670000Y-68690000D01*
X115340000Y-73630000D02*
X115670000Y-73630000D01*
X115670000Y-73630000D02*
X115670000Y-68690000D01*
X126000000Y-79740000D02*
X126000000Y-84240000D01*
X128500000Y-85490000D02*
X130000000Y-85490000D01*
X130000000Y-78490000D02*
X128500000Y-78490000D01*
X132500000Y-84240000D02*
X132500000Y-79740000D01*
X124750000Y-59880000D02*
X124750000Y-59724000D01*
X124750000Y-62196000D02*
X124750000Y-62040000D01*
X121518563Y-59880000D02*
G75*
G02*
X124750000Y-59724484I1671437J-1080000D01*
G01*
X122149039Y-59880000D02*
G75*
G02*
X124230961Y-59880000I1040961J-1080000D01*
G01*
X124230961Y-62040000D02*
G75*
G02*
X122149039Y-62040000I-1040961J1080000D01*
G01*
X124750000Y-62195516D02*
G75*
G02*
X121518563Y-62040000I-1560000J1235516D01*
G01*
D16*
G36*
X101082094Y-111862683D02*
G01*
X101085796Y-111954027D01*
X100990198Y-111954027D01*
X100894600Y-111954027D01*
X100898302Y-111862683D01*
X100902004Y-111771339D01*
X100990198Y-111771339D01*
X101078393Y-111771339D01*
X101082094Y-111862683D01*
G37*
G36*
X102716290Y-112842271D02*
G01*
X102716290Y-112930466D01*
X102625322Y-112934160D01*
X102578125Y-112935550D01*
X102550226Y-112933913D01*
X102535767Y-112927700D01*
X102528891Y-112915360D01*
X102526893Y-112908126D01*
X102523206Y-112877735D01*
X102522550Y-112835458D01*
X102523367Y-112816238D01*
X102527301Y-112754077D01*
X102621796Y-112754077D01*
X102716290Y-112754077D01*
X102716290Y-112842271D01*
G37*
G36*
X101069156Y-112410748D02*
G01*
X101072519Y-112735178D01*
X101154201Y-112735178D01*
X101235883Y-112735178D01*
X101235883Y-112829672D01*
X101235883Y-112924166D01*
X100983503Y-112924166D01*
X100894214Y-112923841D01*
X100827225Y-112922737D01*
X100779644Y-112920664D01*
X100748579Y-112917429D01*
X100731139Y-112912840D01*
X100724539Y-112907006D01*
X100721579Y-112885684D01*
X100720788Y-112848459D01*
X100721785Y-112815662D01*
X100725615Y-112741478D01*
X100804360Y-112737727D01*
X100883105Y-112733976D01*
X100883105Y-112501491D01*
X100883105Y-112269007D01*
X100800658Y-112269007D01*
X100718211Y-112269007D01*
X100721913Y-112177663D01*
X100725615Y-112086319D01*
X100895704Y-112086319D01*
X101065794Y-112086319D01*
X101069156Y-112410748D01*
G37*
G36*
X102216057Y-111836899D02*
G01*
X102219793Y-111915058D01*
X102297952Y-111918793D01*
X102376111Y-111922529D01*
X102379813Y-112013873D01*
X102383515Y-112105218D01*
X102288468Y-112105218D01*
X102193422Y-112105218D01*
X102193422Y-112023323D01*
X102193422Y-111941428D01*
X101960337Y-111941428D01*
X101727252Y-111941428D01*
X101727252Y-112338303D01*
X101727252Y-112735178D01*
X101959736Y-112735178D01*
X102192220Y-112735178D01*
X102195971Y-112656433D01*
X102199722Y-112577688D01*
X102287917Y-112577688D01*
X102376111Y-112577688D01*
X102379813Y-112669032D01*
X102383515Y-112760376D01*
X102301068Y-112760376D01*
X102218621Y-112760376D01*
X102218621Y-112842271D01*
X102218621Y-112924166D01*
X101960337Y-112924166D01*
X101702053Y-112924166D01*
X101702053Y-112842271D01*
X101702053Y-112760376D01*
X101619989Y-112760376D01*
X101537924Y-112760376D01*
X101541244Y-112341453D01*
X101544563Y-111922529D01*
X101622722Y-111918793D01*
X101700881Y-111915058D01*
X101704617Y-111836899D01*
X101708353Y-111758740D01*
X101960337Y-111758740D01*
X102212321Y-111758740D01*
X102216057Y-111836899D01*
G37*
G36*
X99728103Y-111755928D02*
G01*
X99757072Y-111764005D01*
X99766727Y-111772369D01*
X99768626Y-111789547D01*
X99770353Y-111828678D01*
X99771847Y-111886520D01*
X99773049Y-111959829D01*
X99773897Y-112045360D01*
X99774331Y-112139870D01*
X99774375Y-112181843D01*
X99774375Y-112571388D01*
X99848622Y-112571388D01*
X99892905Y-112572971D01*
X99919526Y-112581106D01*
X99932957Y-112600877D01*
X99937665Y-112637365D01*
X99938165Y-112673212D01*
X99938165Y-112735178D01*
X100000559Y-112735178D01*
X100062954Y-112735178D01*
X100066705Y-112656433D01*
X100070456Y-112577688D01*
X100149028Y-112573941D01*
X100227599Y-112570195D01*
X100230922Y-112164467D01*
X100234246Y-111758740D01*
X100322440Y-111758740D01*
X100410635Y-111758740D01*
X100413954Y-112177058D01*
X100417273Y-112595376D01*
X100338358Y-112599131D01*
X100259444Y-112602886D01*
X100255709Y-112681045D01*
X100251973Y-112759204D01*
X100173814Y-112762940D01*
X100095655Y-112766676D01*
X100091904Y-112845421D01*
X100088153Y-112924166D01*
X100002659Y-112924166D01*
X99958362Y-112923010D01*
X99924605Y-112919982D01*
X99908766Y-112915767D01*
X99904214Y-112899503D01*
X99901164Y-112866177D01*
X99900367Y-112834473D01*
X99900367Y-112761579D01*
X99821622Y-112757828D01*
X99742877Y-112754077D01*
X99739126Y-112675332D01*
X99735375Y-112596587D01*
X99661729Y-112596587D01*
X99616355Y-112594656D01*
X99590822Y-112588027D01*
X99580435Y-112576657D01*
X99578531Y-112559465D01*
X99576799Y-112520331D01*
X99575302Y-112462510D01*
X99574100Y-112389258D01*
X99573255Y-112303831D01*
X99572828Y-112209486D01*
X99572788Y-112169703D01*
X99573084Y-112050825D01*
X99574018Y-111955355D01*
X99575656Y-111881508D01*
X99578066Y-111827499D01*
X99581314Y-111791544D01*
X99585468Y-111771859D01*
X99587907Y-111767559D01*
X99610116Y-111757617D01*
X99646381Y-111752512D01*
X99688458Y-111752023D01*
X99728103Y-111755928D01*
G37*
G36*
X100973671Y-109661389D02*
G01*
X101029054Y-109662778D01*
X101068348Y-109665663D01*
X101096108Y-109670525D01*
X101116883Y-109677843D01*
X101131253Y-109685615D01*
X101150406Y-109699131D01*
X101165617Y-109715633D01*
X101177288Y-109737936D01*
X101185820Y-109768857D01*
X101191616Y-109811210D01*
X101195078Y-109867812D01*
X101196609Y-109941479D01*
X101196609Y-110035025D01*
X101195657Y-110136601D01*
X101191786Y-110467339D01*
X101270531Y-110467330D01*
X101349276Y-110467321D01*
X101349276Y-110114358D01*
X101349276Y-109761395D01*
X101392387Y-109714333D01*
X101435497Y-109667271D01*
X101624331Y-109662989D01*
X101701056Y-109661700D01*
X101757338Y-109662084D01*
X101797900Y-109664492D01*
X101827461Y-109669274D01*
X101850744Y-109676782D01*
X101858957Y-109680437D01*
X101881834Y-109692156D01*
X101900038Y-109705110D01*
X101914104Y-109722142D01*
X101924563Y-109746091D01*
X101931949Y-109779799D01*
X101936794Y-109826108D01*
X101939631Y-109887858D01*
X101940994Y-109967891D01*
X101941414Y-110069048D01*
X101941438Y-110120217D01*
X101941438Y-110467321D01*
X102029071Y-110467321D01*
X102116704Y-110467321D01*
X102120416Y-110114766D01*
X102124127Y-109762211D01*
X102165294Y-109721041D01*
X102206462Y-109679870D01*
X102398380Y-109676147D01*
X102474917Y-109675059D01*
X102530933Y-109675470D01*
X102571077Y-109677754D01*
X102600002Y-109682282D01*
X102622356Y-109689428D01*
X102634395Y-109695046D01*
X102659107Y-109709048D01*
X102678728Y-109724828D01*
X102693842Y-109745299D01*
X102705032Y-109773372D01*
X102712883Y-109811959D01*
X102717978Y-109863973D01*
X102720902Y-109932325D01*
X102722237Y-110019927D01*
X102722569Y-110129691D01*
X102722570Y-110134782D01*
X102722589Y-110463702D01*
X102812311Y-110472041D01*
X102890252Y-110486077D01*
X102946378Y-110511857D01*
X102981346Y-110549726D01*
X102988047Y-110564116D01*
X102993797Y-110591603D01*
X102998031Y-110635328D01*
X102999916Y-110686339D01*
X102999944Y-110691777D01*
X103000997Y-110742571D01*
X103003614Y-110786566D01*
X103007254Y-110815064D01*
X103007713Y-110816949D01*
X103015310Y-110845297D01*
X103360944Y-110845297D01*
X103480365Y-110845261D01*
X103577001Y-110846202D01*
X103653262Y-110849692D01*
X103711555Y-110857305D01*
X103754287Y-110870613D01*
X103783865Y-110891190D01*
X103802699Y-110920609D01*
X103813195Y-110960441D01*
X103817761Y-111012261D01*
X103818804Y-111077642D01*
X103818720Y-111144367D01*
X103818720Y-111349635D01*
X103775591Y-111396697D01*
X103732462Y-111443759D01*
X103372416Y-111443759D01*
X103012371Y-111443759D01*
X103012361Y-111576051D01*
X103012351Y-111708343D01*
X103311592Y-111704139D01*
X103426851Y-111702833D01*
X103519845Y-111702690D01*
X103593490Y-111704010D01*
X103650705Y-111707088D01*
X103694406Y-111712222D01*
X103727513Y-111719711D01*
X103752942Y-111729850D01*
X103773611Y-111742938D01*
X103785021Y-111752401D01*
X103825020Y-111788110D01*
X103829022Y-111989737D01*
X103830618Y-112071947D01*
X103830248Y-112138657D01*
X103825563Y-112191457D01*
X103814218Y-112231937D01*
X103793865Y-112261688D01*
X103762156Y-112282298D01*
X103716744Y-112295358D01*
X103655282Y-112302459D01*
X103575423Y-112305190D01*
X103474818Y-112305141D01*
X103365026Y-112304038D01*
X103012355Y-112300505D01*
X103012355Y-112382400D01*
X103012355Y-112464295D01*
X103362721Y-112460770D01*
X103465761Y-112459779D01*
X103546707Y-112459256D01*
X103608663Y-112459405D01*
X103654732Y-112460428D01*
X103688019Y-112462526D01*
X103711625Y-112465902D01*
X103728655Y-112470758D01*
X103742211Y-112477296D01*
X103755398Y-112485719D01*
X103756454Y-112486429D01*
X103784810Y-112509846D01*
X103805393Y-112538882D01*
X103819151Y-112577441D01*
X103827029Y-112629430D01*
X103829974Y-112698754D01*
X103829027Y-112785763D01*
X103826850Y-112855952D01*
X103824000Y-112905954D01*
X103819690Y-112940784D01*
X103813131Y-112965452D01*
X103803533Y-112984972D01*
X103795855Y-112996484D01*
X103780555Y-113015547D01*
X103762873Y-113030688D01*
X103739945Y-113042308D01*
X103708905Y-113050807D01*
X103666888Y-113056583D01*
X103611030Y-113060037D01*
X103538465Y-113061567D01*
X103446329Y-113061575D01*
X103336790Y-113060520D01*
X102999750Y-113056458D01*
X102999751Y-113144652D01*
X102999752Y-113232847D01*
X103343090Y-113229410D01*
X103446655Y-113228514D01*
X103528174Y-113228245D01*
X103590798Y-113228757D01*
X103637674Y-113230202D01*
X103671953Y-113232734D01*
X103696782Y-113236507D01*
X103715311Y-113241675D01*
X103730526Y-113248309D01*
X103762282Y-113267760D01*
X103785594Y-113291843D01*
X103801568Y-113324385D01*
X103811312Y-113369213D01*
X103815933Y-113430156D01*
X103816539Y-113511039D01*
X103816027Y-113543803D01*
X103814252Y-113617364D01*
X103811843Y-113670315D01*
X103808175Y-113707243D01*
X103802622Y-113732736D01*
X103794560Y-113751383D01*
X103786008Y-113764289D01*
X103771105Y-113783308D01*
X103755879Y-113798333D01*
X103737343Y-113809803D01*
X103712509Y-113818155D01*
X103678392Y-113823830D01*
X103632004Y-113827264D01*
X103570360Y-113828899D01*
X103490471Y-113829171D01*
X103389352Y-113828521D01*
X103351085Y-113828180D01*
X103003143Y-113825009D01*
X102995223Y-113944702D01*
X102991609Y-114006515D01*
X102988843Y-114067495D01*
X102987368Y-114117341D01*
X102987238Y-114130540D01*
X102987172Y-114196686D01*
X102823383Y-114196686D01*
X102659593Y-114196686D01*
X102659593Y-114557023D01*
X102659593Y-114917361D01*
X102616756Y-114960198D01*
X102573919Y-115003035D01*
X102363512Y-115003035D01*
X102153105Y-115003035D01*
X102111398Y-114961328D01*
X102094661Y-114943015D01*
X102081427Y-114923290D01*
X102071341Y-114899159D01*
X102064048Y-114867626D01*
X102059193Y-114825697D01*
X102056421Y-114770376D01*
X102055378Y-114698668D01*
X102055709Y-114607579D01*
X102056953Y-114501742D01*
X102061131Y-114196666D01*
X101976086Y-114196676D01*
X101891042Y-114196686D01*
X101891042Y-114537490D01*
X101891082Y-114656218D01*
X101890122Y-114752176D01*
X101886537Y-114827784D01*
X101878704Y-114885461D01*
X101865000Y-114927629D01*
X101843800Y-114956707D01*
X101813481Y-114975115D01*
X101772420Y-114985275D01*
X101718993Y-114989605D01*
X101651577Y-114990527D01*
X101587190Y-114990436D01*
X101377139Y-114990436D01*
X101338984Y-114954794D01*
X101310748Y-114919012D01*
X101293675Y-114879584D01*
X101292935Y-114876049D01*
X101290903Y-114851749D01*
X101289367Y-114806244D01*
X101288374Y-114743524D01*
X101287968Y-114667577D01*
X101288196Y-114582395D01*
X101288810Y-114514807D01*
X101292579Y-114196667D01*
X101213834Y-114196677D01*
X101135089Y-114196686D01*
X101135089Y-114543607D01*
X101135062Y-114661421D01*
X101133903Y-114756480D01*
X101129996Y-114831223D01*
X101121724Y-114888090D01*
X101107472Y-114929520D01*
X101085622Y-114957952D01*
X101054560Y-114975824D01*
X101012669Y-114985577D01*
X100958332Y-114989649D01*
X100889933Y-114990479D01*
X100839008Y-114990436D01*
X100761426Y-114990345D01*
X100698729Y-114988457D01*
X100649334Y-114982347D01*
X100611655Y-114969593D01*
X100584109Y-114947771D01*
X100565110Y-114914457D01*
X100553076Y-114867227D01*
X100546421Y-114803658D01*
X100543561Y-114721326D01*
X100542913Y-114617808D01*
X100542926Y-114537490D01*
X100542926Y-114196686D01*
X100407485Y-114196678D01*
X100272044Y-114196670D01*
X100275365Y-114540006D01*
X100276267Y-114642378D01*
X100276639Y-114722696D01*
X100276297Y-114784104D01*
X100275059Y-114829744D01*
X100272744Y-114862759D01*
X100269169Y-114886292D01*
X100264151Y-114903485D01*
X100257510Y-114917481D01*
X100253040Y-114925048D01*
X100231253Y-114953874D01*
X100203945Y-114974845D01*
X100167091Y-114989075D01*
X100116664Y-114997681D01*
X100048637Y-115001776D01*
X99973217Y-115002542D01*
X99885650Y-115000878D01*
X99821280Y-114996366D01*
X99778248Y-114988843D01*
X99765174Y-114984356D01*
X99730672Y-114961134D01*
X99701156Y-114928270D01*
X99699075Y-114925003D01*
X99691498Y-114911207D01*
X99685593Y-114895550D01*
X99681153Y-114874890D01*
X99677969Y-114846083D01*
X99675835Y-114805987D01*
X99674542Y-114751457D01*
X99673883Y-114679352D01*
X99673649Y-114586529D01*
X99673628Y-114540014D01*
X99673581Y-114196686D01*
X99471994Y-114196686D01*
X99270407Y-114196686D01*
X99270407Y-114033643D01*
X99270407Y-113870601D01*
X99235759Y-113888675D01*
X99219992Y-113894346D01*
X99195158Y-113898764D01*
X99158481Y-113902062D01*
X99107185Y-113904374D01*
X99038496Y-113905835D01*
X98949637Y-113906577D01*
X98860932Y-113906744D01*
X98743223Y-113906712D01*
X98648262Y-113905513D01*
X98573606Y-113901486D01*
X98516809Y-113892969D01*
X98475427Y-113878301D01*
X98447016Y-113855821D01*
X98429130Y-113823866D01*
X98419326Y-113780776D01*
X98415157Y-113724889D01*
X98414181Y-113654543D01*
X98414107Y-113603073D01*
X98414166Y-113527850D01*
X98415077Y-113473439D01*
X98417350Y-113435457D01*
X98421492Y-113409519D01*
X98428013Y-113391242D01*
X98437422Y-113376241D01*
X98440974Y-113371610D01*
X98458345Y-113351539D01*
X98477324Y-113335734D01*
X98501009Y-113323692D01*
X98532499Y-113314906D01*
X98574892Y-113308874D01*
X98631286Y-113305089D01*
X98704779Y-113303046D01*
X98798469Y-113302241D01*
X98867232Y-113302142D01*
X98971960Y-113302462D01*
X99054437Y-113303521D01*
X99117604Y-113305468D01*
X99164402Y-113308453D01*
X99197772Y-113312625D01*
X99220655Y-113318134D01*
X99226714Y-113320398D01*
X99270407Y-113338654D01*
X99270407Y-113225055D01*
X99270173Y-113171421D01*
X99268668Y-113138587D01*
X99264685Y-113122153D01*
X99257015Y-113117721D01*
X99244452Y-113120891D01*
X99242058Y-113121755D01*
X99222350Y-113124452D01*
X99180996Y-113126886D01*
X99121546Y-113128959D01*
X99047553Y-113130576D01*
X98962567Y-113131638D01*
X98870140Y-113132051D01*
X98863107Y-113132053D01*
X98512505Y-113132053D01*
X98469382Y-113084991D01*
X98426260Y-113037929D01*
X98426260Y-112841831D01*
X98426362Y-112761017D01*
X98428284Y-112695719D01*
X98434452Y-112644284D01*
X98447291Y-112605059D01*
X98469227Y-112576393D01*
X98502685Y-112556631D01*
X98550090Y-112544121D01*
X98613868Y-112537211D01*
X98696444Y-112534247D01*
X98800243Y-112533578D01*
X98878606Y-112533591D01*
X98970108Y-112534055D01*
X99053925Y-112535366D01*
X99126412Y-112537398D01*
X99183921Y-112540028D01*
X99222808Y-112543129D01*
X99238088Y-112545878D01*
X99270407Y-112558165D01*
X99270416Y-112467133D01*
X99270421Y-112416684D01*
X99509792Y-112416684D01*
X99509792Y-113957301D01*
X101127435Y-113957301D01*
X102745079Y-113957301D01*
X102753381Y-113739965D01*
X102754817Y-113690320D01*
X102756157Y-113620327D01*
X102757398Y-113531871D01*
X102758541Y-113426832D01*
X102759581Y-113307094D01*
X102760519Y-113174538D01*
X102761351Y-113031048D01*
X102762077Y-112878505D01*
X102762695Y-112718792D01*
X102763202Y-112553791D01*
X102763598Y-112385385D01*
X102763880Y-112215456D01*
X102764047Y-112045887D01*
X102764096Y-111878560D01*
X102764028Y-111715357D01*
X102763838Y-111558160D01*
X102763527Y-111408853D01*
X102763091Y-111269317D01*
X102762530Y-111141436D01*
X102761841Y-111027090D01*
X102761024Y-110928163D01*
X102760075Y-110846538D01*
X102758994Y-110784096D01*
X102757779Y-110742719D01*
X102756428Y-110724292D01*
X102756148Y-110723532D01*
X102742451Y-110722229D01*
X102705095Y-110721031D01*
X102645621Y-110719944D01*
X102565570Y-110718977D01*
X102466480Y-110718135D01*
X102349893Y-110717425D01*
X102217347Y-110716855D01*
X102070384Y-110716430D01*
X101910544Y-110716159D01*
X101739366Y-110716047D01*
X101558390Y-110716102D01*
X101369157Y-110716330D01*
X101206446Y-110716657D01*
X99667282Y-110720309D01*
X99588537Y-110798188D01*
X99509792Y-110876067D01*
X99509792Y-112416684D01*
X99270421Y-112416684D01*
X99270425Y-112376101D01*
X98899139Y-112379786D01*
X98527853Y-112383472D01*
X98480206Y-112339818D01*
X98432559Y-112296165D01*
X98428155Y-112124312D01*
X98426610Y-112038193D01*
X98427476Y-111973015D01*
X98431469Y-111924579D01*
X98439303Y-111888683D01*
X98451695Y-111861129D01*
X98469359Y-111837716D01*
X98478628Y-111828002D01*
X98517440Y-111789190D01*
X98893932Y-111792864D01*
X99270424Y-111796537D01*
X99270415Y-111647148D01*
X99270142Y-111583944D01*
X99268923Y-111542093D01*
X99266149Y-111517751D01*
X99261208Y-111507076D01*
X99253490Y-111506225D01*
X99248358Y-111508301D01*
X99230250Y-111511263D01*
X99190498Y-111514217D01*
X99132655Y-111517017D01*
X99060276Y-111519518D01*
X98976914Y-111521574D01*
X98889614Y-111522998D01*
X98769448Y-111524377D01*
X98672082Y-111524185D01*
X98595120Y-111520826D01*
X98536164Y-111512704D01*
X98492816Y-111498225D01*
X98462678Y-111475792D01*
X98443353Y-111443812D01*
X98432443Y-111400688D01*
X98427552Y-111344824D01*
X98426280Y-111274626D01*
X98426260Y-111214683D01*
X98426268Y-111137136D01*
X98427922Y-111074582D01*
X98433660Y-111025412D01*
X98445926Y-110988017D01*
X98467160Y-110960790D01*
X98499803Y-110942121D01*
X98546296Y-110930402D01*
X98609081Y-110924023D01*
X98690599Y-110921377D01*
X98793290Y-110920855D01*
X98872086Y-110920892D01*
X98964915Y-110921348D01*
X99049846Y-110922637D01*
X99123308Y-110924638D01*
X99181735Y-110927232D01*
X99221557Y-110930299D01*
X99238088Y-110933180D01*
X99270407Y-110945467D01*
X99270407Y-110876067D01*
X99270407Y-110860923D01*
X99270407Y-110776380D01*
X99418250Y-110628150D01*
X99566094Y-110479920D01*
X99651336Y-110479920D01*
X99736577Y-110479920D01*
X99736577Y-110121809D01*
X99736577Y-109763699D01*
X99768885Y-109725303D01*
X99795763Y-109699832D01*
X99829619Y-109681734D01*
X99874778Y-109669957D01*
X99935562Y-109663449D01*
X100016293Y-109661158D01*
X100032659Y-109661112D01*
X100117293Y-109662779D01*
X100181230Y-109668479D01*
X100228790Y-109679266D01*
X100264299Y-109696191D01*
X100292078Y-109720307D01*
X100296432Y-109725303D01*
X100328740Y-109763699D01*
X100328740Y-110115510D01*
X100328740Y-110467321D01*
X100464181Y-110467331D01*
X100599623Y-110467341D01*
X100595894Y-110127126D01*
X100594683Y-110006561D01*
X100594989Y-109908804D01*
X100598360Y-109831465D01*
X100606343Y-109772155D01*
X100620486Y-109728482D01*
X100642336Y-109698058D01*
X100673441Y-109678491D01*
X100715347Y-109667392D01*
X100769603Y-109662371D01*
X100837754Y-109661037D01*
X100897648Y-109661019D01*
X100973671Y-109661389D01*
G37*
D11*
X60960000Y-58420000D02*
X88900000Y-58420000D01*
X60960000Y-86360000D02*
X60960000Y-58420000D01*
X88900000Y-58420000D02*
X88900000Y-86360000D01*
X88900000Y-86360000D02*
X60960000Y-86360000D01*
X60960000Y-58420000D02*
X88900000Y-58420000D01*
X88900000Y-86360000D01*
X60960000Y-86360000D01*
X60960000Y-58420000D01*
M02*
